999
FreeCAD v1.0 39319 (Git)
  0
SECTION
  2
HEADER
  9
$ACADVER
  1
AC1014
  9
$ACADMAINTVER
 70
     9
  9
$DWGCODEPAGE
  3
ANSI_1252
  9
$TEXTSTYLE
  7
STANDARD
  9
$DIMSTYLE
  2
STANDARD
  9
$DIMTXSTY
  7
STANDARD
  9
$CMLSTYLE
  2
STANDARD
  9
$LUNITS
 70
2
  9
$INSUNITS
 70
4
  9
$PEXTMAX
 10
50
 20
50
 30
50
  9
$PEXTMIN
 10
0
 20
0
 30
0
  9
$HANDSEED
  5
FFFF
  0
ENDSEC
  0
SECTION
  2
CLASSES
  0
CLASS
  1
ACDBDICTIONARYWDFLT
  2
AcDbDictionaryWithDefault
  3
ObjectDBX Classes
 90
        0
280
     0
281
     0
  0
CLASS
  1
XRECORD
  2
AcDbXrecord
  3
ObjectDBX Classes
 90
        0
280
     0
281
     0
  0
CLASS
  1
LWPOLYLINE
  2
AcDbPolyline
  3
ObjectDBX Classes
 90
        0
280
     0
281
     1
  0
ENDSEC
  0
SECTION
  2
TABLES
  0
TABLE
  2
VPORT
  5
20
330
0
100
AcDbSymbolTable
 70
     1
  0
VPORT
  5
21
330
20
100
AcDbSymbolTableRecord
100
AcDbViewportTableRecord
  2
*ACTIVE
 70
     0
  0
ENDTAB
  0
TABLE
  2
LTYPE
  5
22
330
0
100
AcDbSymbolTable
 70
     1
  0
LTYPE
  5
23
330
21
100
AcDbSymbolTableRecord
100
AcDbLinetypeTableRecord
  2
BYBLOCK
 70
     0
  3

 72
    65
 73
     0
 40
0.0
  0
LTYPE
  5
24
330
21
100
AcDbSymbolTableRecord
100
AcDbLinetypeTableRecord
  2
BYLAYER
 70
     0
  3

 72
    65
 73
     0
 40
0.0
  0
LTYPE
  5
25
330
21
100
AcDbSymbolTableRecord
100
AcDbLinetypeTableRecord
  2
CONTINUOUS
 70
     0
  3
Solid line
 72
    65
 73
     0
 40
0.0
  0
ENDTAB
  0
TABLE
  2
LAYER
  5
CBE
330
0
100
AcDbSymbolTable
 70
2
  0
LAYER
  5
CBF
330
CBE
100
AcDbSymbolTableRecord
100
AcDbLayerTableRecord
  2
0
 70
   0
 62
   7
  6
CONTINUOUS
  0
LAYER
  5
CC0
330
CBE
100
AcDbSymbolTableRecord
100
AcDbLayerTableRecord
  2
View
 70
    0
 62
    7
  6
CONTINUOUS
  0
ENDTAB
  0
TABLE
  2
STYLE
  5
70
330
0
100
AcDbSymbolTable
 70
     2
  0
STYLE
  5
71
330
70
100
AcDbSymbolTableRecord
100
AcDbTextStyleTableRecord
  2
STANDARD
 70
     0
 40
0.0
 41
1.0
 50
0.0
 71
     0
 42
2.5
  3
arial.ttf
  4

  0
STYLE
  5
72
330
70
100
AcDbSymbolTableRecord
100
AcDbTextStyleTableRecord
  2
ANNOTATIVE
 70
     0
 40
0.0
 41
1.0
 50
0.0
 71
     0
 42
2.5
  3
arial.ttf
  4

  0
ENDTAB
  0
TABLE
  2
VIEW
  5
73
330
0
100
AcDbSymbolTable
 70
     0
  0
ENDTAB
  0
TABLE
  2
UCS
  5
74
330
0
100
AcDbSymbolTable
 70
     0
  0
ENDTAB
  0
TABLE
  2
APPID
  5
75
330
0
100
AcDbSymbolTable
 70
     2
  0
APPID
  5
76
330
75
100
AcDbSymbolTableRecord
100
AcDbRegAppTableRecord
  2
ACAD
 70
     0
  0
APPID
  5
77
330
75
100
AcDbSymbolTableRecord
100
AcDbRegAppTableRecord
  2
ACADANNOTATIVE
 70
     0
  0
ENDTAB
  0
TABLE
  2
DIMSTYLE
  5
78
330
0
100
AcDbSymbolTable
 70
     2
  0
DIMSTYLE
105
79
330
78
100
AcDbSymbolTableRecord
100
AcDbDimStyleTableRecord
  2
STANDARD
 70
     0
  3

  4

  5

  6

  7

 40
0.0
 41
2.5
 42
0.625
 43
3.75
 44
1.25
 45
0.0
 46
0.0
 47
0.0
 48
0.0
140
2.5
141
2.5
142
0.0
143
0.03937007874016
144
1.0
145
0.0
146
1.0
147
0.625
 71
     0
 72
     0
 73
     0
 74
     0
 75
     0
 76
     0
 77
     1
 78
     8
170
     0
171
     3
172
     1
173
     0
174
     0
175
     0
176
     0
177
     0
178
     0
270
     2
271
     2
272
     2
273
     2
274
     3
340
71
275
     0
280
     0
281
     0
282
     0
283
     0
284
     8
285
     0
286
     0
287
     3
288
     0
  0
ENDTAB
  0
TABLE
  2
BLOCK_RECORD
  5
A01
330
0
100
AcDbSymbolTable
  70
5
  0
BLOCK_RECORD
  5
A02
330
A01
100
AcDbSymbolTableRecord
100
AcDbBlockTableRecord
  2
*MODEL_SPACE
  0
BLOCK_RECORD
  5
A03
330
A01
100
AcDbSymbolTableRecord
100
AcDbBlockTableRecord
  2
*PAPER_SPACE
  0
ENDTAB
  0
ENDSEC
  0
SECTION
  2
BLOCKS
  0
BLOCK
  5
A04
330
A02
100
AcDbEntity
  8
0
100
AcDbBlockBegin
  2
*MODEL_SPACE
 70
   0
 10
0
 20
0
 30
0
  3
*MODEL_SPACE
  1
 
  0
ENDBLK
  5
A05
330
A02
100
AcDbEntity
  8
0
100
AcDbBlockEnd
  0
BLOCK
  5
A06
330
A03
100
AcDbEntity
 67
1
  8
0
100
AcDbBlockBegin
  2
*PAPER_SPACE
 70
   0
 10
0
 20
0
 30
0
  3
*PAPER_SPACE
  1
 
  0
ENDBLK
  5
A07
330
A03
100
AcDbEntity
 67
    1
  8
0
100
AcDbBlockEnd
  0
ENDSEC
  0
SECTION
  2
ENTITIES
  0
CIRCLE
  5
A08
330
A02
100
AcDbEntity
  8
View
100
AcDbCircle
 10
517.730376600
 20
118.808808029
 30
0.000000000
 40
1.800000000
  0
CIRCLE
  5
A09
330
A02
100
AcDbEntity
  8
View
100
AcDbCircle
 10
46.333032028
 20
301.191191971
 30
0.000000000
 40
1.800000000
  0
CIRCLE
  5
A0A
330
A02
100
AcDbEntity
  8
View
100
AcDbCircle
 10
76.333032028
 20
118.808808029
 30
0.000000000
 40
1.800000000
  0
CIRCLE
  5
A0B
330
A02
100
AcDbEntity
  8
View
100
AcDbCircle
 10
46.333032028
 20
118.808808029
 30
0.000000000
 40
1.800000000
  0
CIRCLE
  5
A0C
330
A02
100
AcDbEntity
  8
View
100
AcDbCircle
 10
76.333032028
 20
301.191191971
 30
0.000000000
 40
1.800000000
  0
CIRCLE
  5
A0D
330
A02
100
AcDbEntity
  8
View
100
AcDbCircle
 10
547.730376600
 20
118.808808029
 30
0.000000000
 40
1.800000000
  0
CIRCLE
  5
A0E
330
A02
100
AcDbEntity
  8
View
100
AcDbCircle
 10
517.730376600
 20
301.191191971
 30
0.000000000
 40
1.800000000
  0
CIRCLE
  5
A0F
330
A02
100
AcDbEntity
  8
View
100
AcDbCircle
 10
547.730376600
 20
301.191191971
 30
0.000000000
 40
1.800000000
  0
LINE
  5
A10
330
A02
100
AcDbEntity
  8
View
100
AcDbLine
 10
200.368057700
 20
151.269313386
 30
0.000000000
 11
200.368057700
 21
154.499413386
 31
0.000000000
  0
LINE
  5
A11
330
A02
100
AcDbEntity
  8
View
100
AcDbLine
 10
200.368057700
 20
154.499413386
 30
0.000000000
 11
198.642557700
 21
154.499413386
 31
0.000000000
  0
LINE
  5
A12
330
A02
100
AcDbEntity
  8
View
100
AcDbLine
 10
198.642557700
 20
154.499413386
 30
0.000000000
 11
198.642557700
 21
155.418613386
 31
0.000000000
  0
LINE
  5
A13
330
A02
100
AcDbEntity
  8
View
100
AcDbLine
 10
198.642557700
 20
155.418613386
 30
0.000000000
 11
195.341957700
 21
155.418613386
 31
0.000000000
  0
LINE
  5
A14
330
A02
100
AcDbEntity
  8
View
100
AcDbLine
 10
195.341957700
 20
155.418613386
 30
0.000000000
 11
195.341957700
 21
154.499413386
 31
0.000000000
  0
LINE
  5
A15
330
A02
100
AcDbEntity
  8
View
100
AcDbLine
 10
195.341957700
 20
154.499413386
 30
0.000000000
 11
193.616957700
 21
154.499413386
 31
0.000000000
  0
LINE
  5
A16
330
A02
100
AcDbEntity
  8
View
100
AcDbLine
 10
193.616957700
 20
154.499413386
 30
0.000000000
 11
193.616957700
 21
151.269313386
 31
0.000000000
  0
LINE
  5
A17
330
A02
100
AcDbEntity
  8
View
100
AcDbLine
 10
193.616957700
 20
151.269313386
 30
0.000000000
 11
192.792857700
 21
151.269313386
 31
0.000000000
  0
LINE
  5
A18
330
A02
100
AcDbEntity
  8
View
100
AcDbLine
 10
192.792857700
 20
151.269313386
 30
0.000000000
 11
192.792857700
 21
148.469143386
 31
0.000000000
  0
LINE
  5
A19
330
A02
100
AcDbEntity
  8
View
100
AcDbLine
 10
192.792857700
 20
148.469143386
 30
0.000000000
 11
193.616957700
 21
148.469143386
 31
0.000000000
  0
LINE
  5
A1A
330
A02
100
AcDbEntity
  8
View
100
AcDbLine
 10
193.616957700
 20
148.469143386
 30
0.000000000
 11
193.616957700
 21
142.199073386
 31
0.000000000
  0
LINE
  5
A1B
330
A02
100
AcDbEntity
  8
View
100
AcDbLine
 10
193.616957700
 20
142.199073386
 30
0.000000000
 11
195.341957700
 21
142.199073386
 31
0.000000000
  0
LINE
  5
A1C
330
A02
100
AcDbEntity
  8
View
100
AcDbLine
 10
195.341957700
 20
142.199073386
 30
0.000000000
 11
195.341957700
 21
141.219283386
 31
0.000000000
  0
LINE
  5
A1D
330
A02
100
AcDbEntity
  8
View
100
AcDbLine
 10
195.341957700
 20
141.219283386
 30
0.000000000
 11
198.642557700
 21
141.219283386
 31
0.000000000
  0
LINE
  5
A1E
330
A02
100
AcDbEntity
  8
View
100
AcDbLine
 10
198.642557700
 20
141.219283386
 30
0.000000000
 11
198.642557700
 21
142.199073386
 31
0.000000000
  0
LINE
  5
A1F
330
A02
100
AcDbEntity
  8
View
100
AcDbLine
 10
198.642557700
 20
142.199073386
 30
0.000000000
 11
200.368057700
 21
142.199073386
 31
0.000000000
  0
LINE
  5
A20
330
A02
100
AcDbEntity
  8
View
100
AcDbLine
 10
200.368057700
 20
142.199073386
 30
0.000000000
 11
200.368057700
 21
146.669413386
 31
0.000000000
  0
LINE
  5
A21
330
A02
100
AcDbEntity
  8
View
100
AcDbLine
 10
200.368057700
 20
146.669413386
 30
0.000000000
 11
239.991957700
 21
146.669413386
 31
0.000000000
  0
LINE
  5
A22
330
A02
100
AcDbEntity
  8
View
100
AcDbLine
 10
239.991957700
 20
146.669413386
 30
0.000000000
 11
239.991957700
 21
141.968943386
 31
0.000000000
  0
LINE
  5
A23
330
A02
100
AcDbEntity
  8
View
100
AcDbLine
 10
239.991957700
 20
141.968943386
 30
0.000000000
 11
253.992957700
 21
141.968943386
 31
0.000000000
  0
LINE
  5
A24
330
A02
100
AcDbEntity
  8
View
100
AcDbLine
 10
253.992957700
 20
141.968943386
 30
0.000000000
 11
253.992957700
 21
146.669413386
 31
0.000000000
  0
LINE
  5
A25
330
A02
100
AcDbEntity
  8
View
100
AcDbLine
 10
253.992957700
 20
146.669413386
 30
0.000000000
 11
293.616957700
 21
146.669413386
 31
0.000000000
  0
LINE
  5
A26
330
A02
100
AcDbEntity
  8
View
100
AcDbLine
 10
293.616957700
 20
146.669413386
 30
0.000000000
 11
293.616957700
 21
142.199073386
 31
0.000000000
  0
LINE
  5
A27
330
A02
100
AcDbEntity
  8
View
100
AcDbLine
 10
293.616957700
 20
142.199073386
 30
0.000000000
 11
295.341957700
 21
142.199073386
 31
0.000000000
  0
LINE
  5
A28
330
A02
100
AcDbEntity
  8
View
100
AcDbLine
 10
295.341957700
 20
142.199073386
 30
0.000000000
 11
295.341957700
 21
141.219283386
 31
0.000000000
  0
LINE
  5
A29
330
A02
100
AcDbEntity
  8
View
100
AcDbLine
 10
295.341957700
 20
141.219283386
 30
0.000000000
 11
298.642957700
 21
141.219283386
 31
0.000000000
  0
LINE
  5
A2A
330
A02
100
AcDbEntity
  8
View
100
AcDbLine
 10
298.642957700
 20
141.219283386
 30
0.000000000
 11
298.642957700
 21
142.199073386
 31
0.000000000
  0
LINE
  5
A2B
330
A02
100
AcDbEntity
  8
View
100
AcDbLine
 10
298.642957700
 20
142.199073386
 30
0.000000000
 11
300.367957700
 21
142.199073386
 31
0.000000000
  0
LINE
  5
A2C
330
A02
100
AcDbEntity
  8
View
100
AcDbLine
 10
300.367957700
 20
142.199073386
 30
0.000000000
 11
300.367957700
 21
148.469143386
 31
0.000000000
  0
LINE
  5
A2D
330
A02
100
AcDbEntity
  8
View
100
AcDbLine
 10
300.367957700
 20
148.469143386
 30
0.000000000
 11
301.191957700
 21
148.469143386
 31
0.000000000
  0
LINE
  5
A2E
330
A02
100
AcDbEntity
  8
View
100
AcDbLine
 10
301.191957700
 20
148.469143386
 30
0.000000000
 11
301.191957700
 21
151.269313386
 31
0.000000000
  0
LINE
  5
A2F
330
A02
100
AcDbEntity
  8
View
100
AcDbLine
 10
301.191957700
 20
151.269313386
 30
0.000000000
 11
300.367957700
 21
151.269313386
 31
0.000000000
  0
LINE
  5
A30
330
A02
100
AcDbEntity
  8
View
100
AcDbLine
 10
300.367957700
 20
151.269313386
 30
0.000000000
 11
300.367957700
 21
154.499413386
 31
0.000000000
  0
LINE
  5
A31
330
A02
100
AcDbEntity
  8
View
100
AcDbLine
 10
300.367957700
 20
154.499413386
 30
0.000000000
 11
298.642957700
 21
154.499413386
 31
0.000000000
  0
LINE
  5
A32
330
A02
100
AcDbEntity
  8
View
100
AcDbLine
 10
298.642957700
 20
154.499413386
 30
0.000000000
 11
298.642957700
 21
155.418613386
 31
0.000000000
  0
LINE
  5
A33
330
A02
100
AcDbEntity
  8
View
100
AcDbLine
 10
298.642957700
 20
155.418613386
 30
0.000000000
 11
295.341957700
 21
155.418613386
 31
0.000000000
  0
LINE
  5
A34
330
A02
100
AcDbEntity
  8
View
100
AcDbLine
 10
295.341957700
 20
155.418613386
 30
0.000000000
 11
295.341957700
 21
154.499413386
 31
0.000000000
  0
LINE
  5
A35
330
A02
100
AcDbEntity
  8
View
100
AcDbLine
 10
295.341957700
 20
154.499413386
 30
0.000000000
 11
293.616957700
 21
154.499413386
 31
0.000000000
  0
LINE
  5
A36
330
A02
100
AcDbEntity
  8
View
100
AcDbLine
 10
293.616957700
 20
154.499413386
 30
0.000000000
 11
293.616957700
 21
151.269313386
 31
0.000000000
  0
LINE
  5
A37
330
A02
100
AcDbEntity
  8
View
100
AcDbLine
 10
293.616957700
 20
151.269313386
 30
0.000000000
 11
253.992957700
 21
151.269313386
 31
0.000000000
  0
LINE
  5
A38
330
A02
100
AcDbEntity
  8
View
100
AcDbLine
 10
253.992957700
 20
151.269313386
 30
0.000000000
 11
253.992957700
 21
155.968413386
 31
0.000000000
  0
LINE
  5
A39
330
A02
100
AcDbEntity
  8
View
100
AcDbLine
 10
253.992957700
 20
155.968413386
 30
0.000000000
 11
239.991957700
 21
155.968413386
 31
0.000000000
  0
LINE
  5
A3A
330
A02
100
AcDbEntity
  8
View
100
AcDbLine
 10
239.991957700
 20
155.968413386
 30
0.000000000
 11
239.991957700
 21
151.269313386
 31
0.000000000
  0
LINE
  5
A3B
330
A02
100
AcDbEntity
  8
View
100
AcDbLine
 10
239.991957700
 20
151.269313386
 30
0.000000000
 11
200.368057700
 21
151.269313386
 31
0.000000000
  0
LINE
  5
A3C
330
A02
100
AcDbEntity
  8
View
100
AcDbLine
 10
374.198957700
 20
227.469313386
 30
0.000000000
 11
374.198957700
 21
230.699413386
 31
0.000000000
  0
LINE
  5
A3D
330
A02
100
AcDbEntity
  8
View
100
AcDbLine
 10
374.198957700
 20
230.699413386
 30
0.000000000
 11
372.473957700
 21
230.699413386
 31
0.000000000
  0
LINE
  5
A3E
330
A02
100
AcDbEntity
  8
View
100
AcDbLine
 10
372.473957700
 20
230.699413386
 30
0.000000000
 11
372.473957700
 21
231.618713386
 31
0.000000000
  0
LINE
  5
A3F
330
A02
100
AcDbEntity
  8
View
100
AcDbLine
 10
372.473957700
 20
231.618713386
 30
0.000000000
 11
369.172957700
 21
231.618713386
 31
0.000000000
  0
LINE
  5
A40
330
A02
100
AcDbEntity
  8
View
100
AcDbLine
 10
369.172957700
 20
231.618713386
 30
0.000000000
 11
369.172957700
 21
230.699413386
 31
0.000000000
  0
LINE
  5
A41
330
A02
100
AcDbEntity
  8
View
100
AcDbLine
 10
369.172957700
 20
230.699413386
 30
0.000000000
 11
367.449957700
 21
230.699413386
 31
0.000000000
  0
LINE
  5
A42
330
A02
100
AcDbEntity
  8
View
100
AcDbLine
 10
367.449957700
 20
230.699413386
 30
0.000000000
 11
367.449957700
 21
227.469313386
 31
0.000000000
  0
LINE
  5
A43
330
A02
100
AcDbEntity
  8
View
100
AcDbLine
 10
367.449957700
 20
227.469313386
 30
0.000000000
 11
366.623957700
 21
227.469313386
 31
0.000000000
  0
LINE
  5
A44
330
A02
100
AcDbEntity
  8
View
100
AcDbLine
 10
366.623957700
 20
227.469313386
 30
0.000000000
 11
366.623957700
 21
224.669013386
 31
0.000000000
  0
LINE
  5
A45
330
A02
100
AcDbEntity
  8
View
100
AcDbLine
 10
366.623957700
 20
224.669013386
 30
0.000000000
 11
367.449957700
 21
224.669013386
 31
0.000000000
  0
LINE
  5
A46
330
A02
100
AcDbEntity
  8
View
100
AcDbLine
 10
367.449957700
 20
224.669013386
 30
0.000000000
 11
367.449957700
 21
218.399113386
 31
0.000000000
  0
LINE
  5
A47
330
A02
100
AcDbEntity
  8
View
100
AcDbLine
 10
367.449957700
 20
218.399113386
 30
0.000000000
 11
369.172957700
 21
218.399113386
 31
0.000000000
  0
LINE
  5
A48
330
A02
100
AcDbEntity
  8
View
100
AcDbLine
 10
369.172957700
 20
218.399113386
 30
0.000000000
 11
369.172957700
 21
217.419413386
 31
0.000000000
  0
LINE
  5
A49
330
A02
100
AcDbEntity
  8
View
100
AcDbLine
 10
369.172957700
 20
217.419413386
 30
0.000000000
 11
372.473957700
 21
217.419413386
 31
0.000000000
  0
LINE
  5
A4A
330
A02
100
AcDbEntity
  8
View
100
AcDbLine
 10
372.473957700
 20
217.419413386
 30
0.000000000
 11
372.473957700
 21
218.399113386
 31
0.000000000
  0
LINE
  5
A4B
330
A02
100
AcDbEntity
  8
View
100
AcDbLine
 10
372.473957700
 20
218.399113386
 30
0.000000000
 11
374.198957700
 21
218.399113386
 31
0.000000000
  0
LINE
  5
A4C
330
A02
100
AcDbEntity
  8
View
100
AcDbLine
 10
374.198957700
 20
218.399113386
 30
0.000000000
 11
374.198957700
 21
222.869513386
 31
0.000000000
  0
LINE
  5
A4D
330
A02
100
AcDbEntity
  8
View
100
AcDbLine
 10
374.198957700
 20
222.869513386
 30
0.000000000
 11
375.724957700
 21
222.869513386
 31
0.000000000
  0
LINE
  5
A4E
330
A02
100
AcDbEntity
  8
View
100
AcDbLine
 10
375.724957700
 20
222.869513386
 30
0.000000000
 11
375.724957700
 21
218.169113386
 31
0.000000000
  0
LINE
  5
A4F
330
A02
100
AcDbEntity
  8
View
100
AcDbLine
 10
375.724957700
 20
218.169113386
 30
0.000000000
 11
389.723957700
 21
218.169113386
 31
0.000000000
  0
LINE
  5
A50
330
A02
100
AcDbEntity
  8
View
100
AcDbLine
 10
389.723957700
 20
218.169113386
 30
0.000000000
 11
389.723957700
 21
222.869513386
 31
0.000000000
  0
LINE
  5
A51
330
A02
100
AcDbEntity
  8
View
100
AcDbLine
 10
389.723957700
 20
222.869513386
 30
0.000000000
 11
391.249957700
 21
222.869513386
 31
0.000000000
  0
LINE
  5
A52
330
A02
100
AcDbEntity
  8
View
100
AcDbLine
 10
391.249957700
 20
222.869513386
 30
0.000000000
 11
391.249957700
 21
218.399113386
 31
0.000000000
  0
LINE
  5
A53
330
A02
100
AcDbEntity
  8
View
100
AcDbLine
 10
391.249957700
 20
218.399113386
 30
0.000000000
 11
392.974957700
 21
218.399113386
 31
0.000000000
  0
LINE
  5
A54
330
A02
100
AcDbEntity
  8
View
100
AcDbLine
 10
392.974957700
 20
218.399113386
 30
0.000000000
 11
392.974957700
 21
217.419413386
 31
0.000000000
  0
LINE
  5
A55
330
A02
100
AcDbEntity
  8
View
100
AcDbLine
 10
392.974957700
 20
217.419413386
 30
0.000000000
 11
396.273957700
 21
217.419413386
 31
0.000000000
  0
LINE
  5
A56
330
A02
100
AcDbEntity
  8
View
100
AcDbLine
 10
396.273957700
 20
217.419413386
 30
0.000000000
 11
396.273957700
 21
218.399113386
 31
0.000000000
  0
LINE
  5
A57
330
A02
100
AcDbEntity
  8
View
100
AcDbLine
 10
396.273957700
 20
218.399113386
 30
0.000000000
 11
397.998957700
 21
218.399113386
 31
0.000000000
  0
LINE
  5
A58
330
A02
100
AcDbEntity
  8
View
100
AcDbLine
 10
397.998957700
 20
218.399113386
 30
0.000000000
 11
397.998957700
 21
224.669013386
 31
0.000000000
  0
LINE
  5
A59
330
A02
100
AcDbEntity
  8
View
100
AcDbLine
 10
397.998957700
 20
224.669013386
 30
0.000000000
 11
398.824957700
 21
224.669013386
 31
0.000000000
  0
LINE
  5
A5A
330
A02
100
AcDbEntity
  8
View
100
AcDbLine
 10
398.824957700
 20
224.669013386
 30
0.000000000
 11
398.824957700
 21
227.469313386
 31
0.000000000
  0
LINE
  5
A5B
330
A02
100
AcDbEntity
  8
View
100
AcDbLine
 10
398.824957700
 20
227.469313386
 30
0.000000000
 11
397.998957700
 21
227.469313386
 31
0.000000000
  0
LINE
  5
A5C
330
A02
100
AcDbEntity
  8
View
100
AcDbLine
 10
397.998957700
 20
227.469313386
 30
0.000000000
 11
397.998957700
 21
230.699413386
 31
0.000000000
  0
LINE
  5
A5D
330
A02
100
AcDbEntity
  8
View
100
AcDbLine
 10
397.998957700
 20
230.699413386
 30
0.000000000
 11
396.273957700
 21
230.699413386
 31
0.000000000
  0
LINE
  5
A5E
330
A02
100
AcDbEntity
  8
View
100
AcDbLine
 10
396.273957700
 20
230.699413386
 30
0.000000000
 11
396.273957700
 21
231.618713386
 31
0.000000000
  0
LINE
  5
A5F
330
A02
100
AcDbEntity
  8
View
100
AcDbLine
 10
396.273957700
 20
231.618713386
 30
0.000000000
 11
392.974957700
 21
231.618713386
 31
0.000000000
  0
LINE
  5
A60
330
A02
100
AcDbEntity
  8
View
100
AcDbLine
 10
392.974957700
 20
231.618713386
 30
0.000000000
 11
392.974957700
 21
230.699413386
 31
0.000000000
  0
LINE
  5
A61
330
A02
100
AcDbEntity
  8
View
100
AcDbLine
 10
392.974957700
 20
230.699413386
 30
0.000000000
 11
391.249957700
 21
230.699413386
 31
0.000000000
  0
LINE
  5
A62
330
A02
100
AcDbEntity
  8
View
100
AcDbLine
 10
391.249957700
 20
230.699413386
 30
0.000000000
 11
391.249957700
 21
227.469313386
 31
0.000000000
  0
LINE
  5
A63
330
A02
100
AcDbEntity
  8
View
100
AcDbLine
 10
391.249957700
 20
227.469313386
 30
0.000000000
 11
389.723957700
 21
227.469313386
 31
0.000000000
  0
LINE
  5
A64
330
A02
100
AcDbEntity
  8
View
100
AcDbLine
 10
389.723957700
 20
227.469313386
 30
0.000000000
 11
389.723957700
 21
232.168313386
 31
0.000000000
  0
LINE
  5
A65
330
A02
100
AcDbEntity
  8
View
100
AcDbLine
 10
389.723957700
 20
232.168313386
 30
0.000000000
 11
375.724957700
 21
232.168313386
 31
0.000000000
  0
LINE
  5
A66
330
A02
100
AcDbEntity
  8
View
100
AcDbLine
 10
375.724957700
 20
232.168313386
 30
0.000000000
 11
375.724957700
 21
227.469313386
 31
0.000000000
  0
LINE
  5
A67
330
A02
100
AcDbEntity
  8
View
100
AcDbLine
 10
375.724957700
 20
227.469313386
 30
0.000000000
 11
374.198957700
 21
227.469313386
 31
0.000000000
  0
LINE
  5
A68
330
A02
100
AcDbEntity
  8
View
100
AcDbLine
 10
128.930357700
 20
170.319313386
 30
0.000000000
 11
128.930357700
 21
173.549413386
 31
0.000000000
  0
LINE
  5
A69
330
A02
100
AcDbEntity
  8
View
100
AcDbLine
 10
128.930357700
 20
173.549413386
 30
0.000000000
 11
127.205057700
 21
173.549413386
 31
0.000000000
  0
LINE
  5
A6A
330
A02
100
AcDbEntity
  8
View
100
AcDbLine
 10
127.205057700
 20
173.549413386
 30
0.000000000
 11
127.205057700
 21
174.468713386
 31
0.000000000
  0
LINE
  5
A6B
330
A02
100
AcDbEntity
  8
View
100
AcDbLine
 10
127.205057700
 20
174.468713386
 30
0.000000000
 11
123.906047700
 21
174.468713386
 31
0.000000000
  0
LINE
  5
A6C
330
A02
100
AcDbEntity
  8
View
100
AcDbLine
 10
123.906047700
 20
174.468713386
 30
0.000000000
 11
123.906047700
 21
173.549413386
 31
0.000000000
  0
LINE
  5
A6D
330
A02
100
AcDbEntity
  8
View
100
AcDbLine
 10
123.906047700
 20
173.549413386
 30
0.000000000
 11
122.180757700
 21
173.549413386
 31
0.000000000
  0
LINE
  5
A6E
330
A02
100
AcDbEntity
  8
View
100
AcDbLine
 10
122.180757700
 20
173.549413386
 30
0.000000000
 11
122.180757700
 21
170.319313386
 31
0.000000000
  0
LINE
  5
A6F
330
A02
100
AcDbEntity
  8
View
100
AcDbLine
 10
122.180757700
 20
170.319313386
 30
0.000000000
 11
121.355287700
 21
170.319313386
 31
0.000000000
  0
LINE
  5
A70
330
A02
100
AcDbEntity
  8
View
100
AcDbLine
 10
121.355287700
 20
170.319313386
 30
0.000000000
 11
121.355287700
 21
167.519113386
 31
0.000000000
  0
LINE
  5
A71
330
A02
100
AcDbEntity
  8
View
100
AcDbLine
 10
121.355287700
 20
167.519113386
 30
0.000000000
 11
122.180757700
 21
167.519113386
 31
0.000000000
  0
LINE
  5
A72
330
A02
100
AcDbEntity
  8
View
100
AcDbLine
 10
122.180757700
 20
167.519113386
 30
0.000000000
 11
122.180757700
 21
161.249113386
 31
0.000000000
  0
LINE
  5
A73
330
A02
100
AcDbEntity
  8
View
100
AcDbLine
 10
122.180757700
 20
161.249113386
 30
0.000000000
 11
123.906047700
 21
161.249113386
 31
0.000000000
  0
LINE
  5
A74
330
A02
100
AcDbEntity
  8
View
100
AcDbLine
 10
123.906047700
 20
161.249113386
 30
0.000000000
 11
123.906047700
 21
160.269313386
 31
0.000000000
  0
LINE
  5
A75
330
A02
100
AcDbEntity
  8
View
100
AcDbLine
 10
123.906047700
 20
160.269313386
 30
0.000000000
 11
127.205057700
 21
160.269313386
 31
0.000000000
  0
LINE
  5
A76
330
A02
100
AcDbEntity
  8
View
100
AcDbLine
 10
127.205057700
 20
160.269313386
 30
0.000000000
 11
127.205057700
 21
161.249113386
 31
0.000000000
  0
LINE
  5
A77
330
A02
100
AcDbEntity
  8
View
100
AcDbLine
 10
127.205057700
 20
161.249113386
 30
0.000000000
 11
128.930357700
 21
161.249113386
 31
0.000000000
  0
LINE
  5
A78
330
A02
100
AcDbEntity
  8
View
100
AcDbLine
 10
128.930357700
 20
161.249113386
 30
0.000000000
 11
128.930357700
 21
165.719413386
 31
0.000000000
  0
LINE
  5
A79
330
A02
100
AcDbEntity
  8
View
100
AcDbLine
 10
128.930357700
 20
165.719413386
 30
0.000000000
 11
130.455857700
 21
165.719413386
 31
0.000000000
  0
LINE
  5
A7A
330
A02
100
AcDbEntity
  8
View
100
AcDbLine
 10
130.455857700
 20
165.719413386
 30
0.000000000
 11
130.455857700
 21
161.018913386
 31
0.000000000
  0
LINE
  5
A7B
330
A02
100
AcDbEntity
  8
View
100
AcDbLine
 10
130.455857700
 20
161.018913386
 30
0.000000000
 11
144.455357700
 21
161.018913386
 31
0.000000000
  0
LINE
  5
A7C
330
A02
100
AcDbEntity
  8
View
100
AcDbLine
 10
144.455357700
 20
161.018913386
 30
0.000000000
 11
144.455357700
 21
165.719413386
 31
0.000000000
  0
LINE
  5
A7D
330
A02
100
AcDbEntity
  8
View
100
AcDbLine
 10
144.455357700
 20
165.719413386
 30
0.000000000
 11
145.980857700
 21
165.719413386
 31
0.000000000
  0
LINE
  5
A7E
330
A02
100
AcDbEntity
  8
View
100
AcDbLine
 10
145.980857700
 20
165.719413386
 30
0.000000000
 11
145.980857700
 21
161.249113386
 31
0.000000000
  0
LINE
  5
A7F
330
A02
100
AcDbEntity
  8
View
100
AcDbLine
 10
145.980857700
 20
161.249113386
 30
0.000000000
 11
147.704757700
 21
161.249113386
 31
0.000000000
  0
LINE
  5
A80
330
A02
100
AcDbEntity
  8
View
100
AcDbLine
 10
147.704757700
 20
161.249113386
 30
0.000000000
 11
147.704757700
 21
160.269313386
 31
0.000000000
  0
LINE
  5
A81
330
A02
100
AcDbEntity
  8
View
100
AcDbLine
 10
147.704757700
 20
160.269313386
 30
0.000000000
 11
151.005157700
 21
160.269313386
 31
0.000000000
  0
LINE
  5
A82
330
A02
100
AcDbEntity
  8
View
100
AcDbLine
 10
151.005157700
 20
160.269313386
 30
0.000000000
 11
151.005157700
 21
161.249113386
 31
0.000000000
  0
LINE
  5
A83
330
A02
100
AcDbEntity
  8
View
100
AcDbLine
 10
151.005157700
 20
161.249113386
 30
0.000000000
 11
152.730357700
 21
161.249113386
 31
0.000000000
  0
LINE
  5
A84
330
A02
100
AcDbEntity
  8
View
100
AcDbLine
 10
152.730357700
 20
161.249113386
 30
0.000000000
 11
152.730357700
 21
167.519113386
 31
0.000000000
  0
LINE
  5
A85
330
A02
100
AcDbEntity
  8
View
100
AcDbLine
 10
152.730357700
 20
167.519113386
 30
0.000000000
 11
153.555857700
 21
167.519113386
 31
0.000000000
  0
LINE
  5
A86
330
A02
100
AcDbEntity
  8
View
100
AcDbLine
 10
153.555857700
 20
167.519113386
 30
0.000000000
 11
153.555857700
 21
170.319313386
 31
0.000000000
  0
LINE
  5
A87
330
A02
100
AcDbEntity
  8
View
100
AcDbLine
 10
153.555857700
 20
170.319313386
 30
0.000000000
 11
152.730357700
 21
170.319313386
 31
0.000000000
  0
LINE
  5
A88
330
A02
100
AcDbEntity
  8
View
100
AcDbLine
 10
152.730357700
 20
170.319313386
 30
0.000000000
 11
152.730357700
 21
173.549413386
 31
0.000000000
  0
LINE
  5
A89
330
A02
100
AcDbEntity
  8
View
100
AcDbLine
 10
152.730357700
 20
173.549413386
 30
0.000000000
 11
151.005157700
 21
173.549413386
 31
0.000000000
  0
LINE
  5
A8A
330
A02
100
AcDbEntity
  8
View
100
AcDbLine
 10
151.005157700
 20
173.549413386
 30
0.000000000
 11
151.005157700
 21
174.468713386
 31
0.000000000
  0
LINE
  5
A8B
330
A02
100
AcDbEntity
  8
View
100
AcDbLine
 10
151.005157700
 20
174.468713386
 30
0.000000000
 11
147.704757700
 21
174.468713386
 31
0.000000000
  0
LINE
  5
A8C
330
A02
100
AcDbEntity
  8
View
100
AcDbLine
 10
147.704757700
 20
174.468713386
 30
0.000000000
 11
147.704757700
 21
173.549413386
 31
0.000000000
  0
LINE
  5
A8D
330
A02
100
AcDbEntity
  8
View
100
AcDbLine
 10
147.704757700
 20
173.549413386
 30
0.000000000
 11
145.980857700
 21
173.549413386
 31
0.000000000
  0
LINE
  5
A8E
330
A02
100
AcDbEntity
  8
View
100
AcDbLine
 10
145.980857700
 20
173.549413386
 30
0.000000000
 11
145.980857700
 21
170.319313386
 31
0.000000000
  0
LINE
  5
A8F
330
A02
100
AcDbEntity
  8
View
100
AcDbLine
 10
145.980857700
 20
170.319313386
 30
0.000000000
 11
144.455357700
 21
170.319313386
 31
0.000000000
  0
LINE
  5
A90
330
A02
100
AcDbEntity
  8
View
100
AcDbLine
 10
144.455357700
 20
170.319313386
 30
0.000000000
 11
144.455357700
 21
175.018313386
 31
0.000000000
  0
LINE
  5
A91
330
A02
100
AcDbEntity
  8
View
100
AcDbLine
 10
144.455357700
 20
175.018313386
 30
0.000000000
 11
130.455857700
 21
175.018313386
 31
0.000000000
  0
LINE
  5
A92
330
A02
100
AcDbEntity
  8
View
100
AcDbLine
 10
130.455857700
 20
175.018313386
 30
0.000000000
 11
130.455857700
 21
170.319313386
 31
0.000000000
  0
LINE
  5
A93
330
A02
100
AcDbEntity
  8
View
100
AcDbLine
 10
130.455857700
 20
170.319313386
 30
0.000000000
 11
128.930357700
 21
170.319313386
 31
0.000000000
  0
LINE
  5
A94
330
A02
100
AcDbEntity
  8
View
100
AcDbLine
 10
461.679957700
 20
173.768613386
 30
0.000000000
 11
461.679957700
 21
172.044613386
 31
0.000000000
  0
LINE
  5
A95
330
A02
100
AcDbEntity
  8
View
100
AcDbLine
 10
461.679957700
 20
172.044613386
 30
0.000000000
 11
460.699957700
 21
172.044613386
 31
0.000000000
  0
LINE
  5
A96
330
A02
100
AcDbEntity
  8
View
100
AcDbLine
 10
460.699957700
 20
172.044613386
 30
0.000000000
 11
460.699957700
 21
168.744213386
 31
0.000000000
  0
LINE
  5
A97
330
A02
100
AcDbEntity
  8
View
100
AcDbLine
 10
460.699957700
 20
168.744213386
 30
0.000000000
 11
461.679957700
 21
168.744213386
 31
0.000000000
  0
LINE
  5
A98
330
A02
100
AcDbEntity
  8
View
100
AcDbLine
 10
461.679957700
 20
168.744213386
 30
0.000000000
 11
461.679957700
 21
167.018913386
 31
0.000000000
  0
LINE
  5
A99
330
A02
100
AcDbEntity
  8
View
100
AcDbLine
 10
461.679957700
 20
167.018913386
 30
0.000000000
 11
466.149957700
 21
167.018913386
 31
0.000000000
  0
LINE
  5
A9A
330
A02
100
AcDbEntity
  8
View
100
AcDbLine
 10
466.149957700
 20
167.018913386
 30
0.000000000
 11
466.149957700
 21
165.493413386
 31
0.000000000
  0
LINE
  5
A9B
330
A02
100
AcDbEntity
  8
View
100
AcDbLine
 10
466.149957700
 20
165.493413386
 30
0.000000000
 11
461.449957700
 21
165.493413386
 31
0.000000000
  0
LINE
  5
A9C
330
A02
100
AcDbEntity
  8
View
100
AcDbLine
 10
461.449957700
 20
165.493413386
 30
0.000000000
 11
461.449957700
 21
151.493913386
 31
0.000000000
  0
LINE
  5
A9D
330
A02
100
AcDbEntity
  8
View
100
AcDbLine
 10
461.449957700
 20
151.493913386
 30
0.000000000
 11
466.149957700
 21
151.493913386
 31
0.000000000
  0
LINE
  5
A9E
330
A02
100
AcDbEntity
  8
View
100
AcDbLine
 10
466.149957700
 20
151.493913386
 30
0.000000000
 11
466.149957700
 21
149.968413386
 31
0.000000000
  0
LINE
  5
A9F
330
A02
100
AcDbEntity
  8
View
100
AcDbLine
 10
466.149957700
 20
149.968413386
 30
0.000000000
 11
461.679957700
 21
149.968413386
 31
0.000000000
  0
LINE
  5
AA0
330
A02
100
AcDbEntity
  8
View
100
AcDbLine
 10
461.679957700
 20
149.968413386
 30
0.000000000
 11
461.679957700
 21
148.244533386
 31
0.000000000
  0
LINE
  5
AA1
330
A02
100
AcDbEntity
  8
View
100
AcDbLine
 10
461.679957700
 20
148.244533386
 30
0.000000000
 11
460.699957700
 21
148.244533386
 31
0.000000000
  0
LINE
  5
AA2
330
A02
100
AcDbEntity
  8
View
100
AcDbLine
 10
460.699957700
 20
148.244533386
 30
0.000000000
 11
460.699957700
 21
144.944113386
 31
0.000000000
  0
LINE
  5
AA3
330
A02
100
AcDbEntity
  8
View
100
AcDbLine
 10
460.699957700
 20
144.944113386
 30
0.000000000
 11
461.679957700
 21
144.944113386
 31
0.000000000
  0
LINE
  5
AA4
330
A02
100
AcDbEntity
  8
View
100
AcDbLine
 10
461.679957700
 20
144.944113386
 30
0.000000000
 11
461.679957700
 21
143.218823386
 31
0.000000000
  0
LINE
  5
AA5
330
A02
100
AcDbEntity
  8
View
100
AcDbLine
 10
461.679957700
 20
143.218823386
 30
0.000000000
 11
467.949957700
 21
143.218823386
 31
0.000000000
  0
LINE
  5
AA6
330
A02
100
AcDbEntity
  8
View
100
AcDbLine
 10
467.949957700
 20
143.218823386
 30
0.000000000
 11
467.949957700
 21
142.394753386
 31
0.000000000
  0
LINE
  5
AA7
330
A02
100
AcDbEntity
  8
View
100
AcDbLine
 10
467.949957700
 20
142.394753386
 30
0.000000000
 11
470.749957700
 21
142.394753386
 31
0.000000000
  0
LINE
  5
AA8
330
A02
100
AcDbEntity
  8
View
100
AcDbLine
 10
470.749957700
 20
142.394753386
 30
0.000000000
 11
470.749957700
 21
143.218823386
 31
0.000000000
  0
LINE
  5
AA9
330
A02
100
AcDbEntity
  8
View
100
AcDbLine
 10
470.749957700
 20
143.218823386
 30
0.000000000
 11
473.981957700
 21
143.218823386
 31
0.000000000
  0
LINE
  5
AAA
330
A02
100
AcDbEntity
  8
View
100
AcDbLine
 10
473.981957700
 20
143.218823386
 30
0.000000000
 11
473.981957700
 21
144.944113386
 31
0.000000000
  0
LINE
  5
AAB
330
A02
100
AcDbEntity
  8
View
100
AcDbLine
 10
473.981957700
 20
144.944113386
 30
0.000000000
 11
474.898957700
 21
144.944113386
 31
0.000000000
  0
LINE
  5
AAC
330
A02
100
AcDbEntity
  8
View
100
AcDbLine
 10
474.898957700
 20
144.944113386
 30
0.000000000
 11
474.898957700
 21
148.244533386
 31
0.000000000
  0
LINE
  5
AAD
330
A02
100
AcDbEntity
  8
View
100
AcDbLine
 10
474.898957700
 20
148.244533386
 30
0.000000000
 11
473.981957700
 21
148.244533386
 31
0.000000000
  0
LINE
  5
AAE
330
A02
100
AcDbEntity
  8
View
100
AcDbLine
 10
473.981957700
 20
148.244533386
 30
0.000000000
 11
473.981957700
 21
149.968413386
 31
0.000000000
  0
LINE
  5
AAF
330
A02
100
AcDbEntity
  8
View
100
AcDbLine
 10
473.981957700
 20
149.968413386
 30
0.000000000
 11
470.749957700
 21
149.968413386
 31
0.000000000
  0
LINE
  5
AB0
330
A02
100
AcDbEntity
  8
View
100
AcDbLine
 10
470.749957700
 20
149.968413386
 30
0.000000000
 11
470.749957700
 21
151.493913386
 31
0.000000000
  0
LINE
  5
AB1
330
A02
100
AcDbEntity
  8
View
100
AcDbLine
 10
470.749957700
 20
151.493913386
 30
0.000000000
 11
475.448957700
 21
151.493913386
 31
0.000000000
  0
LINE
  5
AB2
330
A02
100
AcDbEntity
  8
View
100
AcDbLine
 10
475.448957700
 20
151.493913386
 30
0.000000000
 11
475.448957700
 21
165.493413386
 31
0.000000000
  0
LINE
  5
AB3
330
A02
100
AcDbEntity
  8
View
100
AcDbLine
 10
475.448957700
 20
165.493413386
 30
0.000000000
 11
470.749957700
 21
165.493413386
 31
0.000000000
  0
LINE
  5
AB4
330
A02
100
AcDbEntity
  8
View
100
AcDbLine
 10
470.749957700
 20
165.493413386
 30
0.000000000
 11
470.749957700
 21
167.018913386
 31
0.000000000
  0
LINE
  5
AB5
330
A02
100
AcDbEntity
  8
View
100
AcDbLine
 10
470.749957700
 20
167.018913386
 30
0.000000000
 11
473.981957700
 21
167.018913386
 31
0.000000000
  0
LINE
  5
AB6
330
A02
100
AcDbEntity
  8
View
100
AcDbLine
 10
473.981957700
 20
167.018913386
 30
0.000000000
 11
473.981957700
 21
168.744213386
 31
0.000000000
  0
LINE
  5
AB7
330
A02
100
AcDbEntity
  8
View
100
AcDbLine
 10
473.981957700
 20
168.744213386
 30
0.000000000
 11
474.898957700
 21
168.744213386
 31
0.000000000
  0
LINE
  5
AB8
330
A02
100
AcDbEntity
  8
View
100
AcDbLine
 10
474.898957700
 20
168.744213386
 30
0.000000000
 11
474.898957700
 21
172.044613386
 31
0.000000000
  0
LINE
  5
AB9
330
A02
100
AcDbEntity
  8
View
100
AcDbLine
 10
474.898957700
 20
172.044613386
 30
0.000000000
 11
473.981957700
 21
172.044613386
 31
0.000000000
  0
LINE
  5
ABA
330
A02
100
AcDbEntity
  8
View
100
AcDbLine
 10
473.981957700
 20
172.044613386
 30
0.000000000
 11
473.981957700
 21
173.768613386
 31
0.000000000
  0
LINE
  5
ABB
330
A02
100
AcDbEntity
  8
View
100
AcDbLine
 10
473.981957700
 20
173.768613386
 30
0.000000000
 11
470.749957700
 21
173.768613386
 31
0.000000000
  0
LINE
  5
ABC
330
A02
100
AcDbEntity
  8
View
100
AcDbLine
 10
470.749957700
 20
173.768613386
 30
0.000000000
 11
470.749957700
 21
174.593913386
 31
0.000000000
  0
LINE
  5
ABD
330
A02
100
AcDbEntity
  8
View
100
AcDbLine
 10
470.749957700
 20
174.593913386
 30
0.000000000
 11
467.949957700
 21
174.593913386
 31
0.000000000
  0
LINE
  5
ABE
330
A02
100
AcDbEntity
  8
View
100
AcDbLine
 10
467.949957700
 20
174.593913386
 30
0.000000000
 11
467.949957700
 21
173.768613386
 31
0.000000000
  0
LINE
  5
ABF
330
A02
100
AcDbEntity
  8
View
100
AcDbLine
 10
467.949957700
 20
173.768613386
 30
0.000000000
 11
461.679957700
 21
173.768613386
 31
0.000000000
  0
LINE
  5
AC0
330
A02
100
AcDbEntity
  8
View
100
AcDbLine
 10
461.679957700
 20
211.868413386
 30
0.000000000
 11
461.679957700
 21
210.144813386
 31
0.000000000
  0
LINE
  5
AC1
330
A02
100
AcDbEntity
  8
View
100
AcDbLine
 10
461.679957700
 20
210.144813386
 30
0.000000000
 11
460.699957700
 21
210.144813386
 31
0.000000000
  0
LINE
  5
AC2
330
A02
100
AcDbEntity
  8
View
100
AcDbLine
 10
460.699957700
 20
210.144813386
 30
0.000000000
 11
460.699957700
 21
206.844213386
 31
0.000000000
  0
LINE
  5
AC3
330
A02
100
AcDbEntity
  8
View
100
AcDbLine
 10
460.699957700
 20
206.844213386
 30
0.000000000
 11
461.679957700
 21
206.844213386
 31
0.000000000
  0
LINE
  5
AC4
330
A02
100
AcDbEntity
  8
View
100
AcDbLine
 10
461.679957700
 20
206.844213386
 30
0.000000000
 11
461.679957700
 21
205.118713386
 31
0.000000000
  0
LINE
  5
AC5
330
A02
100
AcDbEntity
  8
View
100
AcDbLine
 10
461.679957700
 20
205.118713386
 30
0.000000000
 11
466.149957700
 21
205.118713386
 31
0.000000000
  0
LINE
  5
AC6
330
A02
100
AcDbEntity
  8
View
100
AcDbLine
 10
466.149957700
 20
205.118713386
 30
0.000000000
 11
466.149957700
 21
203.593313386
 31
0.000000000
  0
LINE
  5
AC7
330
A02
100
AcDbEntity
  8
View
100
AcDbLine
 10
466.149957700
 20
203.593313386
 30
0.000000000
 11
461.449957700
 21
203.593313386
 31
0.000000000
  0
LINE
  5
AC8
330
A02
100
AcDbEntity
  8
View
100
AcDbLine
 10
461.449957700
 20
203.593313386
 30
0.000000000
 11
461.449957700
 21
189.594113386
 31
0.000000000
  0
LINE
  5
AC9
330
A02
100
AcDbEntity
  8
View
100
AcDbLine
 10
461.449957700
 20
189.594113386
 30
0.000000000
 11
466.149957700
 21
189.594113386
 31
0.000000000
  0
LINE
  5
ACA
330
A02
100
AcDbEntity
  8
View
100
AcDbLine
 10
466.149957700
 20
189.594113386
 30
0.000000000
 11
466.149957700
 21
188.068313386
 31
0.000000000
  0
LINE
  5
ACB
330
A02
100
AcDbEntity
  8
View
100
AcDbLine
 10
466.149957700
 20
188.068313386
 30
0.000000000
 11
461.679957700
 21
188.068313386
 31
0.000000000
  0
LINE
  5
ACC
330
A02
100
AcDbEntity
  8
View
100
AcDbLine
 10
461.679957700
 20
188.068313386
 30
0.000000000
 11
461.679957700
 21
186.344613386
 31
0.000000000
  0
LINE
  5
ACD
330
A02
100
AcDbEntity
  8
View
100
AcDbLine
 10
461.679957700
 20
186.344613386
 30
0.000000000
 11
460.699957700
 21
186.344613386
 31
0.000000000
  0
LINE
  5
ACE
330
A02
100
AcDbEntity
  8
View
100
AcDbLine
 10
460.699957700
 20
186.344613386
 30
0.000000000
 11
460.699957700
 21
183.044013386
 31
0.000000000
  0
LINE
  5
ACF
330
A02
100
AcDbEntity
  8
View
100
AcDbLine
 10
460.699957700
 20
183.044013386
 30
0.000000000
 11
461.679957700
 21
183.044013386
 31
0.000000000
  0
LINE
  5
AD0
330
A02
100
AcDbEntity
  8
View
100
AcDbLine
 10
461.679957700
 20
183.044013386
 30
0.000000000
 11
461.679957700
 21
181.318913386
 31
0.000000000
  0
LINE
  5
AD1
330
A02
100
AcDbEntity
  8
View
100
AcDbLine
 10
461.679957700
 20
181.318913386
 30
0.000000000
 11
467.949957700
 21
181.318913386
 31
0.000000000
  0
LINE
  5
AD2
330
A02
100
AcDbEntity
  8
View
100
AcDbLine
 10
467.949957700
 20
181.318913386
 30
0.000000000
 11
467.949957700
 21
180.494913386
 31
0.000000000
  0
LINE
  5
AD3
330
A02
100
AcDbEntity
  8
View
100
AcDbLine
 10
467.949957700
 20
180.494913386
 30
0.000000000
 11
470.749957700
 21
180.494913386
 31
0.000000000
  0
LINE
  5
AD4
330
A02
100
AcDbEntity
  8
View
100
AcDbLine
 10
470.749957700
 20
180.494913386
 30
0.000000000
 11
470.749957700
 21
181.318913386
 31
0.000000000
  0
LINE
  5
AD5
330
A02
100
AcDbEntity
  8
View
100
AcDbLine
 10
470.749957700
 20
181.318913386
 30
0.000000000
 11
473.981957700
 21
181.318913386
 31
0.000000000
  0
LINE
  5
AD6
330
A02
100
AcDbEntity
  8
View
100
AcDbLine
 10
473.981957700
 20
181.318913386
 30
0.000000000
 11
473.981957700
 21
183.044013386
 31
0.000000000
  0
LINE
  5
AD7
330
A02
100
AcDbEntity
  8
View
100
AcDbLine
 10
473.981957700
 20
183.044013386
 30
0.000000000
 11
474.898957700
 21
183.044013386
 31
0.000000000
  0
LINE
  5
AD8
330
A02
100
AcDbEntity
  8
View
100
AcDbLine
 10
474.898957700
 20
183.044013386
 30
0.000000000
 11
474.898957700
 21
186.344613386
 31
0.000000000
  0
LINE
  5
AD9
330
A02
100
AcDbEntity
  8
View
100
AcDbLine
 10
474.898957700
 20
186.344613386
 30
0.000000000
 11
473.981957700
 21
186.344613386
 31
0.000000000
  0
LINE
  5
ADA
330
A02
100
AcDbEntity
  8
View
100
AcDbLine
 10
473.981957700
 20
186.344613386
 30
0.000000000
 11
473.981957700
 21
188.068313386
 31
0.000000000
  0
LINE
  5
ADB
330
A02
100
AcDbEntity
  8
View
100
AcDbLine
 10
473.981957700
 20
188.068313386
 30
0.000000000
 11
470.749957700
 21
188.068313386
 31
0.000000000
  0
LINE
  5
ADC
330
A02
100
AcDbEntity
  8
View
100
AcDbLine
 10
470.749957700
 20
188.068313386
 30
0.000000000
 11
470.749957700
 21
189.594113386
 31
0.000000000
  0
LINE
  5
ADD
330
A02
100
AcDbEntity
  8
View
100
AcDbLine
 10
470.749957700
 20
189.594113386
 30
0.000000000
 11
475.448957700
 21
189.594113386
 31
0.000000000
  0
LINE
  5
ADE
330
A02
100
AcDbEntity
  8
View
100
AcDbLine
 10
475.448957700
 20
189.594113386
 30
0.000000000
 11
475.448957700
 21
203.593313386
 31
0.000000000
  0
LINE
  5
ADF
330
A02
100
AcDbEntity
  8
View
100
AcDbLine
 10
475.448957700
 20
203.593313386
 30
0.000000000
 11
470.749957700
 21
203.593313386
 31
0.000000000
  0
LINE
  5
AE0
330
A02
100
AcDbEntity
  8
View
100
AcDbLine
 10
470.749957700
 20
203.593313386
 30
0.000000000
 11
470.749957700
 21
205.118713386
 31
0.000000000
  0
LINE
  5
AE1
330
A02
100
AcDbEntity
  8
View
100
AcDbLine
 10
470.749957700
 20
205.118713386
 30
0.000000000
 11
473.981957700
 21
205.118713386
 31
0.000000000
  0
LINE
  5
AE2
330
A02
100
AcDbEntity
  8
View
100
AcDbLine
 10
473.981957700
 20
205.118713386
 30
0.000000000
 11
473.981957700
 21
206.844213386
 31
0.000000000
  0
LINE
  5
AE3
330
A02
100
AcDbEntity
  8
View
100
AcDbLine
 10
473.981957700
 20
206.844213386
 30
0.000000000
 11
474.898957700
 21
206.844213386
 31
0.000000000
  0
LINE
  5
AE4
330
A02
100
AcDbEntity
  8
View
100
AcDbLine
 10
474.898957700
 20
206.844213386
 30
0.000000000
 11
474.898957700
 21
210.144813386
 31
0.000000000
  0
LINE
  5
AE5
330
A02
100
AcDbEntity
  8
View
100
AcDbLine
 10
474.898957700
 20
210.144813386
 30
0.000000000
 11
473.981957700
 21
210.144813386
 31
0.000000000
  0
LINE
  5
AE6
330
A02
100
AcDbEntity
  8
View
100
AcDbLine
 10
473.981957700
 20
210.144813386
 30
0.000000000
 11
473.981957700
 21
211.868413386
 31
0.000000000
  0
LINE
  5
AE7
330
A02
100
AcDbEntity
  8
View
100
AcDbLine
 10
473.981957700
 20
211.868413386
 30
0.000000000
 11
470.749957700
 21
211.868413386
 31
0.000000000
  0
LINE
  5
AE8
330
A02
100
AcDbEntity
  8
View
100
AcDbLine
 10
470.749957700
 20
211.868413386
 30
0.000000000
 11
470.749957700
 21
212.693913386
 31
0.000000000
  0
LINE
  5
AE9
330
A02
100
AcDbEntity
  8
View
100
AcDbLine
 10
470.749957700
 20
212.693913386
 30
0.000000000
 11
467.949957700
 21
212.693913386
 31
0.000000000
  0
LINE
  5
AEA
330
A02
100
AcDbEntity
  8
View
100
AcDbLine
 10
467.949957700
 20
212.693913386
 30
0.000000000
 11
467.949957700
 21
211.868413386
 31
0.000000000
  0
LINE
  5
AEB
330
A02
100
AcDbEntity
  8
View
100
AcDbLine
 10
467.949957700
 20
211.868413386
 30
0.000000000
 11
461.679957700
 21
211.868413386
 31
0.000000000
  0
LINE
  5
AEC
330
A02
100
AcDbEntity
  8
View
100
AcDbLine
 10
371.817957700
 20
189.369313386
 30
0.000000000
 11
371.817957700
 21
192.599413386
 31
0.000000000
  0
LINE
  5
AED
330
A02
100
AcDbEntity
  8
View
100
AcDbLine
 10
371.817957700
 20
192.599413386
 30
0.000000000
 11
370.090957700
 21
192.599413386
 31
0.000000000
  0
LINE
  5
AEE
330
A02
100
AcDbEntity
  8
View
100
AcDbLine
 10
370.090957700
 20
192.599413386
 30
0.000000000
 11
370.090957700
 21
193.518713386
 31
0.000000000
  0
LINE
  5
AEF
330
A02
100
AcDbEntity
  8
View
100
AcDbLine
 10
370.090957700
 20
193.518713386
 30
0.000000000
 11
366.791957700
 21
193.518713386
 31
0.000000000
  0
LINE
  5
AF0
330
A02
100
AcDbEntity
  8
View
100
AcDbLine
 10
366.791957700
 20
193.518713386
 30
0.000000000
 11
366.791957700
 21
192.599413386
 31
0.000000000
  0
LINE
  5
AF1
330
A02
100
AcDbEntity
  8
View
100
AcDbLine
 10
366.791957700
 20
192.599413386
 30
0.000000000
 11
365.066957700
 21
192.599413386
 31
0.000000000
  0
LINE
  5
AF2
330
A02
100
AcDbEntity
  8
View
100
AcDbLine
 10
365.066957700
 20
192.599413386
 30
0.000000000
 11
365.066957700
 21
189.369313386
 31
0.000000000
  0
LINE
  5
AF3
330
A02
100
AcDbEntity
  8
View
100
AcDbLine
 10
365.066957700
 20
189.369313386
 30
0.000000000
 11
364.242957700
 21
189.369313386
 31
0.000000000
  0
LINE
  5
AF4
330
A02
100
AcDbEntity
  8
View
100
AcDbLine
 10
364.242957700
 20
189.369313386
 30
0.000000000
 11
364.242957700
 21
186.569013386
 31
0.000000000
  0
LINE
  5
AF5
330
A02
100
AcDbEntity
  8
View
100
AcDbLine
 10
364.242957700
 20
186.569013386
 30
0.000000000
 11
365.066957700
 21
186.569013386
 31
0.000000000
  0
LINE
  5
AF6
330
A02
100
AcDbEntity
  8
View
100
AcDbLine
 10
365.066957700
 20
186.569013386
 30
0.000000000
 11
365.066957700
 21
180.299113386
 31
0.000000000
  0
LINE
  5
AF7
330
A02
100
AcDbEntity
  8
View
100
AcDbLine
 10
365.066957700
 20
180.299113386
 30
0.000000000
 11
366.791957700
 21
180.299113386
 31
0.000000000
  0
LINE
  5
AF8
330
A02
100
AcDbEntity
  8
View
100
AcDbLine
 10
366.791957700
 20
180.299113386
 30
0.000000000
 11
366.791957700
 21
179.319413386
 31
0.000000000
  0
LINE
  5
AF9
330
A02
100
AcDbEntity
  8
View
100
AcDbLine
 10
366.791957700
 20
179.319413386
 30
0.000000000
 11
370.090957700
 21
179.319413386
 31
0.000000000
  0
LINE
  5
AFA
330
A02
100
AcDbEntity
  8
View
100
AcDbLine
 10
370.090957700
 20
179.319413386
 30
0.000000000
 11
370.090957700
 21
180.299113386
 31
0.000000000
  0
LINE
  5
AFB
330
A02
100
AcDbEntity
  8
View
100
AcDbLine
 10
370.090957700
 20
180.299113386
 30
0.000000000
 11
371.817957700
 21
180.299113386
 31
0.000000000
  0
LINE
  5
AFC
330
A02
100
AcDbEntity
  8
View
100
AcDbLine
 10
371.817957700
 20
180.299113386
 30
0.000000000
 11
371.817957700
 21
184.769513386
 31
0.000000000
  0
LINE
  5
AFD
330
A02
100
AcDbEntity
  8
View
100
AcDbLine
 10
371.817957700
 20
184.769513386
 30
0.000000000
 11
373.341957700
 21
184.769513386
 31
0.000000000
  0
LINE
  5
AFE
330
A02
100
AcDbEntity
  8
View
100
AcDbLine
 10
373.341957700
 20
184.769513386
 30
0.000000000
 11
373.341957700
 21
180.069113386
 31
0.000000000
  0
LINE
  5
AFF
330
A02
100
AcDbEntity
  8
View
100
AcDbLine
 10
373.341957700
 20
180.069113386
 30
0.000000000
 11
387.342957700
 21
180.069113386
 31
0.000000000
  0
LINE
  5
B00
330
A02
100
AcDbEntity
  8
View
100
AcDbLine
 10
387.342957700
 20
180.069113386
 30
0.000000000
 11
387.342957700
 21
184.769513386
 31
0.000000000
  0
LINE
  5
B01
330
A02
100
AcDbEntity
  8
View
100
AcDbLine
 10
387.342957700
 20
184.769513386
 30
0.000000000
 11
388.866957700
 21
184.769513386
 31
0.000000000
  0
LINE
  5
B02
330
A02
100
AcDbEntity
  8
View
100
AcDbLine
 10
388.866957700
 20
184.769513386
 30
0.000000000
 11
388.866957700
 21
180.299113386
 31
0.000000000
  0
LINE
  5
B03
330
A02
100
AcDbEntity
  8
View
100
AcDbLine
 10
388.866957700
 20
180.299113386
 30
0.000000000
 11
390.591957700
 21
180.299113386
 31
0.000000000
  0
LINE
  5
B04
330
A02
100
AcDbEntity
  8
View
100
AcDbLine
 10
390.591957700
 20
180.299113386
 30
0.000000000
 11
390.591957700
 21
179.319413386
 31
0.000000000
  0
LINE
  5
B05
330
A02
100
AcDbEntity
  8
View
100
AcDbLine
 10
390.591957700
 20
179.319413386
 30
0.000000000
 11
393.892957700
 21
179.319413386
 31
0.000000000
  0
LINE
  5
B06
330
A02
100
AcDbEntity
  8
View
100
AcDbLine
 10
393.892957700
 20
179.319413386
 30
0.000000000
 11
393.892957700
 21
180.299113386
 31
0.000000000
  0
LINE
  5
B07
330
A02
100
AcDbEntity
  8
View
100
AcDbLine
 10
393.892957700
 20
180.299113386
 30
0.000000000
 11
395.617957700
 21
180.299113386
 31
0.000000000
  0
LINE
  5
B08
330
A02
100
AcDbEntity
  8
View
100
AcDbLine
 10
395.617957700
 20
180.299113386
 30
0.000000000
 11
395.617957700
 21
186.569013386
 31
0.000000000
  0
LINE
  5
B09
330
A02
100
AcDbEntity
  8
View
100
AcDbLine
 10
395.617957700
 20
186.569013386
 30
0.000000000
 11
396.441957700
 21
186.569013386
 31
0.000000000
  0
LINE
  5
B0A
330
A02
100
AcDbEntity
  8
View
100
AcDbLine
 10
396.441957700
 20
186.569013386
 30
0.000000000
 11
396.441957700
 21
189.369313386
 31
0.000000000
  0
LINE
  5
B0B
330
A02
100
AcDbEntity
  8
View
100
AcDbLine
 10
396.441957700
 20
189.369313386
 30
0.000000000
 11
395.617957700
 21
189.369313386
 31
0.000000000
  0
LINE
  5
B0C
330
A02
100
AcDbEntity
  8
View
100
AcDbLine
 10
395.617957700
 20
189.369313386
 30
0.000000000
 11
395.617957700
 21
192.599413386
 31
0.000000000
  0
LINE
  5
B0D
330
A02
100
AcDbEntity
  8
View
100
AcDbLine
 10
395.617957700
 20
192.599413386
 30
0.000000000
 11
393.892957700
 21
192.599413386
 31
0.000000000
  0
LINE
  5
B0E
330
A02
100
AcDbEntity
  8
View
100
AcDbLine
 10
393.892957700
 20
192.599413386
 30
0.000000000
 11
393.892957700
 21
193.518713386
 31
0.000000000
  0
LINE
  5
B0F
330
A02
100
AcDbEntity
  8
View
100
AcDbLine
 10
393.892957700
 20
193.518713386
 30
0.000000000
 11
390.591957700
 21
193.518713386
 31
0.000000000
  0
LINE
  5
B10
330
A02
100
AcDbEntity
  8
View
100
AcDbLine
 10
390.591957700
 20
193.518713386
 30
0.000000000
 11
390.591957700
 21
192.599413386
 31
0.000000000
  0
LINE
  5
B11
330
A02
100
AcDbEntity
  8
View
100
AcDbLine
 10
390.591957700
 20
192.599413386
 30
0.000000000
 11
388.866957700
 21
192.599413386
 31
0.000000000
  0
LINE
  5
B12
330
A02
100
AcDbEntity
  8
View
100
AcDbLine
 10
388.866957700
 20
192.599413386
 30
0.000000000
 11
388.866957700
 21
189.369313386
 31
0.000000000
  0
LINE
  5
B13
330
A02
100
AcDbEntity
  8
View
100
AcDbLine
 10
388.866957700
 20
189.369313386
 30
0.000000000
 11
387.342957700
 21
189.369313386
 31
0.000000000
  0
LINE
  5
B14
330
A02
100
AcDbEntity
  8
View
100
AcDbLine
 10
387.342957700
 20
189.369313386
 30
0.000000000
 11
387.342957700
 21
194.068313386
 31
0.000000000
  0
LINE
  5
B15
330
A02
100
AcDbEntity
  8
View
100
AcDbLine
 10
387.342957700
 20
194.068313386
 30
0.000000000
 11
373.341957700
 21
194.068313386
 31
0.000000000
  0
LINE
  5
B16
330
A02
100
AcDbEntity
  8
View
100
AcDbLine
 10
373.341957700
 20
194.068313386
 30
0.000000000
 11
373.341957700
 21
189.369313386
 31
0.000000000
  0
LINE
  5
B17
330
A02
100
AcDbEntity
  8
View
100
AcDbLine
 10
373.341957700
 20
189.369313386
 30
0.000000000
 11
371.817957700
 21
189.369313386
 31
0.000000000
  0
LINE
  5
B18
330
A02
100
AcDbEntity
  8
View
100
AcDbLine
 10
144.741957700
 20
155.968413386
 30
0.000000000
 11
158.742757700
 21
155.968413386
 31
0.000000000
  0
LINE
  5
B19
330
A02
100
AcDbEntity
  8
View
100
AcDbLine
 10
158.742757700
 20
155.968413386
 30
0.000000000
 11
158.742757700
 21
141.968943386
 31
0.000000000
  0
LINE
  5
B1A
330
A02
100
AcDbEntity
  8
View
100
AcDbLine
 10
158.742757700
 20
141.968943386
 30
0.000000000
 11
144.741957700
 21
141.968943386
 31
0.000000000
  0
LINE
  5
B1B
330
A02
100
AcDbEntity
  8
View
100
AcDbLine
 10
144.741957700
 20
141.968943386
 30
0.000000000
 11
144.741957700
 21
155.968413386
 31
0.000000000
  0
LINE
  5
B1C
330
A02
100
AcDbEntity
  8
View
100
AcDbLine
 10
232.847957700
 20
232.168313386
 30
0.000000000
 11
246.848957700
 21
232.168313386
 31
0.000000000
  0
LINE
  5
B1D
330
A02
100
AcDbEntity
  8
View
100
AcDbLine
 10
246.848957700
 20
232.168313386
 30
0.000000000
 11
246.848957700
 21
218.169113386
 31
0.000000000
  0
LINE
  5
B1E
330
A02
100
AcDbEntity
  8
View
100
AcDbLine
 10
246.848957700
 20
218.169113386
 30
0.000000000
 11
232.847957700
 21
218.169113386
 31
0.000000000
  0
LINE
  5
B1F
330
A02
100
AcDbEntity
  8
View
100
AcDbLine
 10
232.847957700
 20
218.169113386
 30
0.000000000
 11
232.847957700
 21
232.168313386
 31
0.000000000
  0
LINE
  5
B20
330
A02
100
AcDbEntity
  8
View
100
AcDbLine
 10
125.691987700
 20
194.068313386
 30
0.000000000
 11
139.692857700
 21
194.068313386
 31
0.000000000
  0
LINE
  5
B21
330
A02
100
AcDbEntity
  8
View
100
AcDbLine
 10
139.692857700
 20
194.068313386
 30
0.000000000
 11
139.692857700
 21
180.069113386
 31
0.000000000
  0
LINE
  5
B22
330
A02
100
AcDbEntity
  8
View
100
AcDbLine
 10
139.692857700
 20
180.069113386
 30
0.000000000
 11
125.691987700
 21
180.069113386
 31
0.000000000
  0
LINE
  5
B23
330
A02
100
AcDbEntity
  8
View
100
AcDbLine
 10
125.691987700
 20
180.069113386
 30
0.000000000
 11
125.691987700
 21
194.068313386
 31
0.000000000
  0
LINE
  5
B24
330
A02
100
AcDbEntity
  8
View
100
AcDbLine
 10
213.798257700
 20
232.168313386
 30
0.000000000
 11
227.798957700
 21
232.168313386
 31
0.000000000
  0
LINE
  5
B25
330
A02
100
AcDbEntity
  8
View
100
AcDbLine
 10
227.798957700
 20
232.168313386
 30
0.000000000
 11
227.798957700
 21
218.169113386
 31
0.000000000
  0
LINE
  5
B26
330
A02
100
AcDbEntity
  8
View
100
AcDbLine
 10
227.798957700
 20
218.169113386
 30
0.000000000
 11
213.798257700
 21
218.169113386
 31
0.000000000
  0
LINE
  5
B27
330
A02
100
AcDbEntity
  8
View
100
AcDbLine
 10
213.798257700
 20
218.169113386
 30
0.000000000
 11
213.798257700
 21
232.168313386
 31
0.000000000
  0
LINE
  5
B28
330
A02
100
AcDbEntity
  8
View
100
AcDbLine
 10
232.847957700
 20
251.217913386
 30
0.000000000
 11
246.848957700
 21
251.217913386
 31
0.000000000
  0
LINE
  5
B29
330
A02
100
AcDbEntity
  8
View
100
AcDbLine
 10
246.848957700
 20
251.217913386
 30
0.000000000
 11
246.848957700
 21
237.219113386
 31
0.000000000
  0
LINE
  5
B2A
330
A02
100
AcDbEntity
  8
View
100
AcDbLine
 10
246.848957700
 20
237.219113386
 30
0.000000000
 11
232.847957700
 21
237.219113386
 31
0.000000000
  0
LINE
  5
B2B
330
A02
100
AcDbEntity
  8
View
100
AcDbLine
 10
232.847957700
 20
237.219113386
 30
0.000000000
 11
232.847957700
 21
251.217913386
 31
0.000000000
  0
LINE
  5
B2C
330
A02
100
AcDbEntity
  8
View
100
AcDbLine
 10
213.798257700
 20
251.217913386
 30
0.000000000
 11
227.798957700
 21
251.217913386
 31
0.000000000
  0
LINE
  5
B2D
330
A02
100
AcDbEntity
  8
View
100
AcDbLine
 10
227.798957700
 20
251.217913386
 30
0.000000000
 11
227.798957700
 21
237.219113386
 31
0.000000000
  0
LINE
  5
B2E
330
A02
100
AcDbEntity
  8
View
100
AcDbLine
 10
227.798957700
 20
237.219113386
 30
0.000000000
 11
213.798257700
 21
237.219113386
 31
0.000000000
  0
LINE
  5
B2F
330
A02
100
AcDbEntity
  8
View
100
AcDbLine
 10
213.798257700
 20
237.219113386
 30
0.000000000
 11
213.798257700
 21
251.217913386
 31
0.000000000
  0
LINE
  5
B30
330
A02
100
AcDbEntity
  8
View
100
AcDbLine
 10
313.811957700
 20
175.018313386
 30
0.000000000
 11
327.811957700
 21
175.018313386
 31
0.000000000
  0
LINE
  5
B31
330
A02
100
AcDbEntity
  8
View
100
AcDbLine
 10
327.811957700
 20
175.018313386
 30
0.000000000
 11
327.811957700
 21
161.018913386
 31
0.000000000
  0
LINE
  5
B32
330
A02
100
AcDbEntity
  8
View
100
AcDbLine
 10
327.811957700
 20
161.018913386
 30
0.000000000
 11
313.811957700
 21
161.018913386
 31
0.000000000
  0
LINE
  5
B33
330
A02
100
AcDbEntity
  8
View
100
AcDbLine
 10
313.811957700
 20
161.018913386
 30
0.000000000
 11
313.811957700
 21
175.018313386
 31
0.000000000
  0
LINE
  5
B34
330
A02
100
AcDbEntity
  8
View
100
AcDbLine
 10
332.861957700
 20
175.018313386
 30
0.000000000
 11
346.861957700
 21
175.018313386
 31
0.000000000
  0
LINE
  5
B35
330
A02
100
AcDbEntity
  8
View
100
AcDbLine
 10
346.861957700
 20
175.018313386
 30
0.000000000
 11
346.861957700
 21
161.018913386
 31
0.000000000
  0
LINE
  5
B36
330
A02
100
AcDbEntity
  8
View
100
AcDbLine
 10
346.861957700
 20
161.018913386
 30
0.000000000
 11
332.861957700
 21
161.018913386
 31
0.000000000
  0
LINE
  5
B37
330
A02
100
AcDbEntity
  8
View
100
AcDbLine
 10
332.861957700
 20
161.018913386
 30
0.000000000
 11
332.861957700
 21
175.018313386
 31
0.000000000
  0
LINE
  5
B38
330
A02
100
AcDbEntity
  8
View
100
AcDbLine
 10
218.561957700
 20
175.018313386
 30
0.000000000
 11
232.561957700
 21
175.018313386
 31
0.000000000
  0
LINE
  5
B39
330
A02
100
AcDbEntity
  8
View
100
AcDbLine
 10
232.561957700
 20
175.018313386
 30
0.000000000
 11
232.561957700
 21
161.018913386
 31
0.000000000
  0
LINE
  5
B3A
330
A02
100
AcDbEntity
  8
View
100
AcDbLine
 10
232.561957700
 20
161.018913386
 30
0.000000000
 11
218.561957700
 21
161.018913386
 31
0.000000000
  0
LINE
  5
B3B
330
A02
100
AcDbEntity
  8
View
100
AcDbLine
 10
218.561957700
 20
161.018913386
 30
0.000000000
 11
218.561957700
 21
175.018313386
 31
0.000000000
  0
LINE
  5
B3C
330
A02
100
AcDbEntity
  8
View
100
AcDbLine
 10
256.661957700
 20
175.018313386
 30
0.000000000
 11
270.661957700
 21
175.018313386
 31
0.000000000
  0
LINE
  5
B3D
330
A02
100
AcDbEntity
  8
View
100
AcDbLine
 10
270.661957700
 20
175.018313386
 30
0.000000000
 11
270.661957700
 21
161.018913386
 31
0.000000000
  0
LINE
  5
B3E
330
A02
100
AcDbEntity
  8
View
100
AcDbLine
 10
270.661957700
 20
161.018913386
 30
0.000000000
 11
256.661957700
 21
161.018913386
 31
0.000000000
  0
LINE
  5
B3F
330
A02
100
AcDbEntity
  8
View
100
AcDbLine
 10
256.661957700
 20
161.018913386
 30
0.000000000
 11
256.661957700
 21
175.018313386
 31
0.000000000
  0
LINE
  5
B40
330
A02
100
AcDbEntity
  8
View
100
AcDbLine
 10
294.761957700
 20
175.018313386
 30
0.000000000
 11
308.761957700
 21
175.018313386
 31
0.000000000
  0
LINE
  5
B41
330
A02
100
AcDbEntity
  8
View
100
AcDbLine
 10
308.761957700
 20
175.018313386
 30
0.000000000
 11
308.761957700
 21
161.018913386
 31
0.000000000
  0
LINE
  5
B42
330
A02
100
AcDbEntity
  8
View
100
AcDbLine
 10
308.761957700
 20
161.018913386
 30
0.000000000
 11
294.761957700
 21
161.018913386
 31
0.000000000
  0
LINE
  5
B43
330
A02
100
AcDbEntity
  8
View
100
AcDbLine
 10
294.761957700
 20
161.018913386
 30
0.000000000
 11
294.761957700
 21
175.018313386
 31
0.000000000
  0
LINE
  5
B44
330
A02
100
AcDbEntity
  8
View
100
AcDbLine
 10
237.611957700
 20
175.018313386
 30
0.000000000
 11
251.611957700
 21
175.018313386
 31
0.000000000
  0
LINE
  5
B45
330
A02
100
AcDbEntity
  8
View
100
AcDbLine
 10
251.611957700
 20
175.018313386
 30
0.000000000
 11
251.611957700
 21
161.018913386
 31
0.000000000
  0
LINE
  5
B46
330
A02
100
AcDbEntity
  8
View
100
AcDbLine
 10
251.611957700
 20
161.018913386
 30
0.000000000
 11
237.611957700
 21
161.018913386
 31
0.000000000
  0
LINE
  5
B47
330
A02
100
AcDbEntity
  8
View
100
AcDbLine
 10
237.611957700
 20
161.018913386
 30
0.000000000
 11
237.611957700
 21
175.018313386
 31
0.000000000
  0
LINE
  5
B48
330
A02
100
AcDbEntity
  8
View
100
AcDbLine
 10
275.711957700
 20
175.018313386
 30
0.000000000
 11
289.711957700
 21
175.018313386
 31
0.000000000
  0
LINE
  5
B49
330
A02
100
AcDbEntity
  8
View
100
AcDbLine
 10
289.711957700
 20
175.018313386
 30
0.000000000
 11
289.711957700
 21
161.018913386
 31
0.000000000
  0
LINE
  5
B4A
330
A02
100
AcDbEntity
  8
View
100
AcDbLine
 10
289.711957700
 20
161.018913386
 30
0.000000000
 11
275.711957700
 21
161.018913386
 31
0.000000000
  0
LINE
  5
B4B
330
A02
100
AcDbEntity
  8
View
100
AcDbLine
 10
275.711957700
 20
161.018913386
 30
0.000000000
 11
275.711957700
 21
175.018313386
 31
0.000000000
  0
LINE
  5
B4C
330
A02
100
AcDbEntity
  8
View
100
AcDbLine
 10
323.336957700
 20
194.068313386
 30
0.000000000
 11
337.336957700
 21
194.068313386
 31
0.000000000
  0
LINE
  5
B4D
330
A02
100
AcDbEntity
  8
View
100
AcDbLine
 10
337.336957700
 20
194.068313386
 30
0.000000000
 11
337.336957700
 21
180.069113386
 31
0.000000000
  0
LINE
  5
B4E
330
A02
100
AcDbEntity
  8
View
100
AcDbLine
 10
337.336957700
 20
180.069113386
 30
0.000000000
 11
323.336957700
 21
180.069113386
 31
0.000000000
  0
LINE
  5
B4F
330
A02
100
AcDbEntity
  8
View
100
AcDbLine
 10
323.336957700
 20
180.069113386
 30
0.000000000
 11
323.336957700
 21
194.068313386
 31
0.000000000
  0
LINE
  5
B50
330
A02
100
AcDbEntity
  8
View
100
AcDbLine
 10
342.386957700
 20
194.068313386
 30
0.000000000
 11
356.386957700
 21
194.068313386
 31
0.000000000
  0
LINE
  5
B51
330
A02
100
AcDbEntity
  8
View
100
AcDbLine
 10
356.386957700
 20
194.068313386
 30
0.000000000
 11
356.386957700
 21
180.069113386
 31
0.000000000
  0
LINE
  5
B52
330
A02
100
AcDbEntity
  8
View
100
AcDbLine
 10
356.386957700
 20
180.069113386
 30
0.000000000
 11
342.386957700
 21
180.069113386
 31
0.000000000
  0
LINE
  5
B53
330
A02
100
AcDbEntity
  8
View
100
AcDbLine
 10
342.386957700
 20
180.069113386
 30
0.000000000
 11
342.386957700
 21
194.068313386
 31
0.000000000
  0
LINE
  5
B54
330
A02
100
AcDbEntity
  8
View
100
AcDbLine
 10
380.486957700
 20
213.118313386
 30
0.000000000
 11
394.486957700
 21
213.118313386
 31
0.000000000
  0
LINE
  5
B55
330
A02
100
AcDbEntity
  8
View
100
AcDbLine
 10
394.486957700
 20
213.118313386
 30
0.000000000
 11
394.486957700
 21
199.119113386
 31
0.000000000
  0
LINE
  5
B56
330
A02
100
AcDbEntity
  8
View
100
AcDbLine
 10
394.486957700
 20
199.119113386
 30
0.000000000
 11
380.486957700
 21
199.119113386
 31
0.000000000
  0
LINE
  5
B57
330
A02
100
AcDbEntity
  8
View
100
AcDbLine
 10
380.486957700
 20
199.119113386
 30
0.000000000
 11
380.486957700
 21
213.118313386
 31
0.000000000
  0
LINE
  5
B58
330
A02
100
AcDbEntity
  8
View
100
AcDbLine
 10
228.086957700
 20
194.068313386
 30
0.000000000
 11
242.086957700
 21
194.068313386
 31
0.000000000
  0
LINE
  5
B59
330
A02
100
AcDbEntity
  8
View
100
AcDbLine
 10
242.086957700
 20
194.068313386
 30
0.000000000
 11
242.086957700
 21
180.069113386
 31
0.000000000
  0
LINE
  5
B5A
330
A02
100
AcDbEntity
  8
View
100
AcDbLine
 10
242.086957700
 20
180.069113386
 30
0.000000000
 11
228.086957700
 21
180.069113386
 31
0.000000000
  0
LINE
  5
B5B
330
A02
100
AcDbEntity
  8
View
100
AcDbLine
 10
228.086957700
 20
180.069113386
 30
0.000000000
 11
228.086957700
 21
194.068313386
 31
0.000000000
  0
LINE
  5
B5C
330
A02
100
AcDbEntity
  8
View
100
AcDbLine
 10
247.136957700
 20
194.068313386
 30
0.000000000
 11
261.136957700
 21
194.068313386
 31
0.000000000
  0
LINE
  5
B5D
330
A02
100
AcDbEntity
  8
View
100
AcDbLine
 10
261.136957700
 20
194.068313386
 30
0.000000000
 11
261.136957700
 21
180.069113386
 31
0.000000000
  0
LINE
  5
B5E
330
A02
100
AcDbEntity
  8
View
100
AcDbLine
 10
261.136957700
 20
180.069113386
 30
0.000000000
 11
247.136957700
 21
180.069113386
 31
0.000000000
  0
LINE
  5
B5F
330
A02
100
AcDbEntity
  8
View
100
AcDbLine
 10
247.136957700
 20
180.069113386
 30
0.000000000
 11
247.136957700
 21
194.068313386
 31
0.000000000
  0
LINE
  5
B60
330
A02
100
AcDbEntity
  8
View
100
AcDbLine
 10
266.186957700
 20
194.068313386
 30
0.000000000
 11
280.186957700
 21
194.068313386
 31
0.000000000
  0
LINE
  5
B61
330
A02
100
AcDbEntity
  8
View
100
AcDbLine
 10
280.186957700
 20
194.068313386
 30
0.000000000
 11
280.186957700
 21
180.069113386
 31
0.000000000
  0
LINE
  5
B62
330
A02
100
AcDbEntity
  8
View
100
AcDbLine
 10
280.186957700
 20
180.069113386
 30
0.000000000
 11
266.186957700
 21
180.069113386
 31
0.000000000
  0
LINE
  5
B63
330
A02
100
AcDbEntity
  8
View
100
AcDbLine
 10
266.186957700
 20
180.069113386
 30
0.000000000
 11
266.186957700
 21
194.068313386
 31
0.000000000
  0
LINE
  5
B64
330
A02
100
AcDbEntity
  8
View
100
AcDbLine
 10
285.236957700
 20
194.068313386
 30
0.000000000
 11
299.236957700
 21
194.068313386
 31
0.000000000
  0
LINE
  5
B65
330
A02
100
AcDbEntity
  8
View
100
AcDbLine
 10
299.236957700
 20
194.068313386
 30
0.000000000
 11
299.236957700
 21
180.069113386
 31
0.000000000
  0
LINE
  5
B66
330
A02
100
AcDbEntity
  8
View
100
AcDbLine
 10
299.236957700
 20
180.069113386
 30
0.000000000
 11
285.236957700
 21
180.069113386
 31
0.000000000
  0
LINE
  5
B67
330
A02
100
AcDbEntity
  8
View
100
AcDbLine
 10
285.236957700
 20
180.069113386
 30
0.000000000
 11
285.236957700
 21
194.068313386
 31
0.000000000
  0
LINE
  5
B68
330
A02
100
AcDbEntity
  8
View
100
AcDbLine
 10
304.286957700
 20
194.068313386
 30
0.000000000
 11
318.286957700
 21
194.068313386
 31
0.000000000
  0
LINE
  5
B69
330
A02
100
AcDbEntity
  8
View
100
AcDbLine
 10
318.286957700
 20
194.068313386
 30
0.000000000
 11
318.286957700
 21
180.069113386
 31
0.000000000
  0
LINE
  5
B6A
330
A02
100
AcDbEntity
  8
View
100
AcDbLine
 10
318.286957700
 20
180.069113386
 30
0.000000000
 11
304.286957700
 21
180.069113386
 31
0.000000000
  0
LINE
  5
B6B
330
A02
100
AcDbEntity
  8
View
100
AcDbLine
 10
304.286957700
 20
180.069113386
 30
0.000000000
 11
304.286957700
 21
194.068313386
 31
0.000000000
  0
LINE
  5
B6C
330
A02
100
AcDbEntity
  8
View
100
AcDbLine
 10
209.037157700
 20
194.068313386
 30
0.000000000
 11
223.036957700
 21
194.068313386
 31
0.000000000
  0
LINE
  5
B6D
330
A02
100
AcDbEntity
  8
View
100
AcDbLine
 10
223.036957700
 20
194.068313386
 30
0.000000000
 11
223.036957700
 21
180.069113386
 31
0.000000000
  0
LINE
  5
B6E
330
A02
100
AcDbEntity
  8
View
100
AcDbLine
 10
223.036957700
 20
180.069113386
 30
0.000000000
 11
209.037157700
 21
180.069113386
 31
0.000000000
  0
LINE
  5
B6F
330
A02
100
AcDbEntity
  8
View
100
AcDbLine
 10
209.037157700
 20
180.069113386
 30
0.000000000
 11
209.037157700
 21
194.068313386
 31
0.000000000
  0
LINE
  5
B70
330
A02
100
AcDbEntity
  8
View
100
AcDbLine
 10
120.930867700
 20
155.968413386
 30
0.000000000
 11
134.930357700
 21
155.968413386
 31
0.000000000
  0
LINE
  5
B71
330
A02
100
AcDbEntity
  8
View
100
AcDbLine
 10
134.930357700
 20
155.968413386
 30
0.000000000
 11
134.930357700
 21
141.968943386
 31
0.000000000
  0
LINE
  5
B72
330
A02
100
AcDbEntity
  8
View
100
AcDbLine
 10
134.930357700
 20
141.968943386
 30
0.000000000
 11
120.930867700
 21
141.968943386
 31
0.000000000
  0
LINE
  5
B73
330
A02
100
AcDbEntity
  8
View
100
AcDbLine
 10
120.930867700
 20
141.968943386
 30
0.000000000
 11
120.930867700
 21
155.968413386
 31
0.000000000
  0
LINE
  5
B74
330
A02
100
AcDbEntity
  8
View
100
AcDbLine
 10
168.555957700
 20
155.968413386
 30
0.000000000
 11
182.555257700
 21
155.968413386
 31
0.000000000
  0
LINE
  5
B75
330
A02
100
AcDbEntity
  8
View
100
AcDbLine
 10
182.555257700
 20
155.968413386
 30
0.000000000
 11
182.555257700
 21
141.968943386
 31
0.000000000
  0
LINE
  5
B76
330
A02
100
AcDbEntity
  8
View
100
AcDbLine
 10
182.555257700
 20
141.968943386
 30
0.000000000
 11
168.555957700
 21
141.968943386
 31
0.000000000
  0
LINE
  5
B77
330
A02
100
AcDbEntity
  8
View
100
AcDbLine
 10
168.555957700
 20
141.968943386
 30
0.000000000
 11
168.555957700
 21
155.968413386
 31
0.000000000
  0
LINE
  5
B78
330
A02
100
AcDbEntity
  8
View
100
AcDbLine
 10
118.549607700
 20
232.168313386
 30
0.000000000
 11
132.549157700
 21
232.168313386
 31
0.000000000
  0
LINE
  5
B79
330
A02
100
AcDbEntity
  8
View
100
AcDbLine
 10
132.549157700
 20
232.168313386
 30
0.000000000
 11
132.549157700
 21
218.169113386
 31
0.000000000
  0
LINE
  5
B7A
330
A02
100
AcDbEntity
  8
View
100
AcDbLine
 10
132.549157700
 20
218.169113386
 30
0.000000000
 11
118.549607700
 21
218.169113386
 31
0.000000000
  0
LINE
  5
B7B
330
A02
100
AcDbEntity
  8
View
100
AcDbLine
 10
118.549607700
 20
218.169113386
 30
0.000000000
 11
118.549607700
 21
232.168313386
 31
0.000000000
  0
LINE
  5
B7C
330
A02
100
AcDbEntity
  8
View
100
AcDbLine
 10
123.312117700
 20
213.118313386
 30
0.000000000
 11
137.311657700
 21
213.118313386
 31
0.000000000
  0
LINE
  5
B7D
330
A02
100
AcDbEntity
  8
View
100
AcDbLine
 10
137.311657700
 20
213.118313386
 30
0.000000000
 11
137.311657700
 21
199.119113386
 31
0.000000000
  0
LINE
  5
B7E
330
A02
100
AcDbEntity
  8
View
100
AcDbLine
 10
137.311657700
 20
199.119113386
 30
0.000000000
 11
123.312117700
 21
199.119113386
 31
0.000000000
  0
LINE
  5
B7F
330
A02
100
AcDbEntity
  8
View
100
AcDbLine
 10
123.312117700
 20
199.119113386
 30
0.000000000
 11
123.312117700
 21
213.118313386
 31
0.000000000
  0
LINE
  5
B80
330
A02
100
AcDbEntity
  8
View
100
AcDbLine
 10
180.462157700
 20
175.018313386
 30
0.000000000
 11
194.461457700
 21
175.018313386
 31
0.000000000
  0
LINE
  5
B81
330
A02
100
AcDbEntity
  8
View
100
AcDbLine
 10
194.461457700
 20
175.018313386
 30
0.000000000
 11
194.461457700
 21
161.018913386
 31
0.000000000
  0
LINE
  5
B82
330
A02
100
AcDbEntity
  8
View
100
AcDbLine
 10
194.461457700
 20
161.018913386
 30
0.000000000
 11
180.462157700
 21
161.018913386
 31
0.000000000
  0
LINE
  5
B83
330
A02
100
AcDbEntity
  8
View
100
AcDbLine
 10
180.462157700
 20
161.018913386
 30
0.000000000
 11
180.462157700
 21
175.018313386
 31
0.000000000
  0
LINE
  5
B84
330
A02
100
AcDbEntity
  8
View
100
AcDbLine
 10
199.512157700
 20
175.018313386
 30
0.000000000
 11
213.511457700
 21
175.018313386
 31
0.000000000
  0
LINE
  5
B85
330
A02
100
AcDbEntity
  8
View
100
AcDbLine
 10
213.511457700
 20
175.018313386
 30
0.000000000
 11
213.511457700
 21
161.018913386
 31
0.000000000
  0
LINE
  5
B86
330
A02
100
AcDbEntity
  8
View
100
AcDbLine
 10
213.511457700
 20
161.018913386
 30
0.000000000
 11
199.512157700
 21
161.018913386
 31
0.000000000
  0
LINE
  5
B87
330
A02
100
AcDbEntity
  8
View
100
AcDbLine
 10
199.512157700
 20
161.018913386
 30
0.000000000
 11
199.512157700
 21
175.018313386
 31
0.000000000
  0
LINE
  5
B88
330
A02
100
AcDbEntity
  8
View
100
AcDbLine
 10
161.412157700
 20
175.018313386
 30
0.000000000
 11
175.411457700
 21
175.018313386
 31
0.000000000
  0
LINE
  5
B89
330
A02
100
AcDbEntity
  8
View
100
AcDbLine
 10
175.411457700
 20
175.018313386
 30
0.000000000
 11
175.411457700
 21
161.018913386
 31
0.000000000
  0
LINE
  5
B8A
330
A02
100
AcDbEntity
  8
View
100
AcDbLine
 10
175.411457700
 20
161.018913386
 30
0.000000000
 11
161.412157700
 21
161.018913386
 31
0.000000000
  0
LINE
  5
B8B
330
A02
100
AcDbEntity
  8
View
100
AcDbLine
 10
161.412157700
 20
161.018913386
 30
0.000000000
 11
161.412157700
 21
175.018313386
 31
0.000000000
  0
LINE
  5
B8C
330
A02
100
AcDbEntity
  8
View
100
AcDbLine
 10
147.124657700
 20
213.118313386
 30
0.000000000
 11
161.123957700
 21
213.118313386
 31
0.000000000
  0
LINE
  5
B8D
330
A02
100
AcDbEntity
  8
View
100
AcDbLine
 10
161.123957700
 20
213.118313386
 30
0.000000000
 11
161.123957700
 21
199.119113386
 31
0.000000000
  0
LINE
  5
B8E
330
A02
100
AcDbEntity
  8
View
100
AcDbLine
 10
161.123957700
 20
199.119113386
 30
0.000000000
 11
147.124657700
 21
199.119113386
 31
0.000000000
  0
LINE
  5
B8F
330
A02
100
AcDbEntity
  8
View
100
AcDbLine
 10
147.124657700
 20
199.119113386
 30
0.000000000
 11
147.124657700
 21
213.118313386
 31
0.000000000
  0
LINE
  5
B90
330
A02
100
AcDbEntity
  8
View
100
AcDbLine
 10
204.274657700
 20
213.118313386
 30
0.000000000
 11
218.273957700
 21
213.118313386
 31
0.000000000
  0
LINE
  5
B91
330
A02
100
AcDbEntity
  8
View
100
AcDbLine
 10
218.273957700
 20
213.118313386
 30
0.000000000
 11
218.273957700
 21
199.119113386
 31
0.000000000
  0
LINE
  5
B92
330
A02
100
AcDbEntity
  8
View
100
AcDbLine
 10
218.273957700
 20
199.119113386
 30
0.000000000
 11
204.274657700
 21
199.119113386
 31
0.000000000
  0
LINE
  5
B93
330
A02
100
AcDbEntity
  8
View
100
AcDbLine
 10
204.274657700
 20
199.119113386
 30
0.000000000
 11
204.274657700
 21
213.118313386
 31
0.000000000
  0
LINE
  5
B94
330
A02
100
AcDbEntity
  8
View
100
AcDbLine
 10
166.174657700
 20
213.118313386
 30
0.000000000
 11
180.173957700
 21
213.118313386
 31
0.000000000
  0
LINE
  5
B95
330
A02
100
AcDbEntity
  8
View
100
AcDbLine
 10
180.173957700
 20
213.118313386
 30
0.000000000
 11
180.173957700
 21
199.119113386
 31
0.000000000
  0
LINE
  5
B96
330
A02
100
AcDbEntity
  8
View
100
AcDbLine
 10
180.173957700
 20
199.119113386
 30
0.000000000
 11
166.174657700
 21
199.119113386
 31
0.000000000
  0
LINE
  5
B97
330
A02
100
AcDbEntity
  8
View
100
AcDbLine
 10
166.174657700
 20
199.119113386
 30
0.000000000
 11
166.174657700
 21
213.118313386
 31
0.000000000
  0
LINE
  5
B98
330
A02
100
AcDbEntity
  8
View
100
AcDbLine
 10
175.699657700
 20
232.168313386
 30
0.000000000
 11
189.698957700
 21
232.168313386
 31
0.000000000
  0
LINE
  5
B99
330
A02
100
AcDbEntity
  8
View
100
AcDbLine
 10
189.698957700
 20
232.168313386
 30
0.000000000
 11
189.698957700
 21
218.169113386
 31
0.000000000
  0
LINE
  5
B9A
330
A02
100
AcDbEntity
  8
View
100
AcDbLine
 10
189.698957700
 20
218.169113386
 30
0.000000000
 11
175.699657700
 21
218.169113386
 31
0.000000000
  0
LINE
  5
B9B
330
A02
100
AcDbEntity
  8
View
100
AcDbLine
 10
175.699657700
 20
218.169113386
 30
0.000000000
 11
175.699657700
 21
232.168313386
 31
0.000000000
  0
LINE
  5
B9C
330
A02
100
AcDbEntity
  8
View
100
AcDbLine
 10
194.749657700
 20
232.168313386
 30
0.000000000
 11
208.748957700
 21
232.168313386
 31
0.000000000
  0
LINE
  5
B9D
330
A02
100
AcDbEntity
  8
View
100
AcDbLine
 10
208.748957700
 20
232.168313386
 30
0.000000000
 11
208.748957700
 21
218.169113386
 31
0.000000000
  0
LINE
  5
B9E
330
A02
100
AcDbEntity
  8
View
100
AcDbLine
 10
208.748957700
 20
218.169113386
 30
0.000000000
 11
194.749657700
 21
218.169113386
 31
0.000000000
  0
LINE
  5
B9F
330
A02
100
AcDbEntity
  8
View
100
AcDbLine
 10
194.749657700
 20
218.169113386
 30
0.000000000
 11
194.749657700
 21
232.168313386
 31
0.000000000
  0
LINE
  5
BA0
330
A02
100
AcDbEntity
  8
View
100
AcDbLine
 10
151.887157700
 20
194.068313386
 30
0.000000000
 11
165.886457700
 21
194.068313386
 31
0.000000000
  0
LINE
  5
BA1
330
A02
100
AcDbEntity
  8
View
100
AcDbLine
 10
165.886457700
 20
194.068313386
 30
0.000000000
 11
165.886457700
 21
180.069113386
 31
0.000000000
  0
LINE
  5
BA2
330
A02
100
AcDbEntity
  8
View
100
AcDbLine
 10
165.886457700
 20
180.069113386
 30
0.000000000
 11
151.887157700
 21
180.069113386
 31
0.000000000
  0
LINE
  5
BA3
330
A02
100
AcDbEntity
  8
View
100
AcDbLine
 10
151.887157700
 20
180.069113386
 30
0.000000000
 11
151.887157700
 21
194.068313386
 31
0.000000000
  0
LINE
  5
BA4
330
A02
100
AcDbEntity
  8
View
100
AcDbLine
 10
170.937157700
 20
194.068313386
 30
0.000000000
 11
184.936457700
 21
194.068313386
 31
0.000000000
  0
LINE
  5
BA5
330
A02
100
AcDbEntity
  8
View
100
AcDbLine
 10
184.936457700
 20
194.068313386
 30
0.000000000
 11
184.936457700
 21
180.069113386
 31
0.000000000
  0
LINE
  5
BA6
330
A02
100
AcDbEntity
  8
View
100
AcDbLine
 10
184.936457700
 20
180.069113386
 30
0.000000000
 11
170.937157700
 21
180.069113386
 31
0.000000000
  0
LINE
  5
BA7
330
A02
100
AcDbEntity
  8
View
100
AcDbLine
 10
170.937157700
 20
180.069113386
 30
0.000000000
 11
170.937157700
 21
194.068313386
 31
0.000000000
  0
LINE
  5
BA8
330
A02
100
AcDbEntity
  8
View
100
AcDbLine
 10
189.987157700
 20
194.068313386
 30
0.000000000
 11
203.986457700
 21
194.068313386
 31
0.000000000
  0
LINE
  5
BA9
330
A02
100
AcDbEntity
  8
View
100
AcDbLine
 10
203.986457700
 20
194.068313386
 30
0.000000000
 11
203.986457700
 21
180.069113386
 31
0.000000000
  0
LINE
  5
BAA
330
A02
100
AcDbEntity
  8
View
100
AcDbLine
 10
203.986457700
 20
180.069113386
 30
0.000000000
 11
189.987157700
 21
180.069113386
 31
0.000000000
  0
LINE
  5
BAB
330
A02
100
AcDbEntity
  8
View
100
AcDbLine
 10
189.987157700
 20
180.069113386
 30
0.000000000
 11
189.987157700
 21
194.068313386
 31
0.000000000
  0
LINE
  5
BAC
330
A02
100
AcDbEntity
  8
View
100
AcDbLine
 10
137.599657700
 20
232.168313386
 30
0.000000000
 11
151.598957700
 21
232.168313386
 31
0.000000000
  0
LINE
  5
BAD
330
A02
100
AcDbEntity
  8
View
100
AcDbLine
 10
151.598957700
 20
232.168313386
 30
0.000000000
 11
151.598957700
 21
218.169113386
 31
0.000000000
  0
LINE
  5
BAE
330
A02
100
AcDbEntity
  8
View
100
AcDbLine
 10
151.598957700
 20
218.169113386
 30
0.000000000
 11
137.599657700
 21
218.169113386
 31
0.000000000
  0
LINE
  5
BAF
330
A02
100
AcDbEntity
  8
View
100
AcDbLine
 10
137.599657700
 20
218.169113386
 30
0.000000000
 11
137.599657700
 21
232.168313386
 31
0.000000000
  0
LINE
  5
BB0
330
A02
100
AcDbEntity
  8
View
100
AcDbLine
 10
156.649657700
 20
232.168313386
 30
0.000000000
 11
170.648957700
 21
232.168313386
 31
0.000000000
  0
LINE
  5
BB1
330
A02
100
AcDbEntity
  8
View
100
AcDbLine
 10
170.648957700
 20
232.168313386
 30
0.000000000
 11
170.648957700
 21
218.169113386
 31
0.000000000
  0
LINE
  5
BB2
330
A02
100
AcDbEntity
  8
View
100
AcDbLine
 10
170.648957700
 20
218.169113386
 30
0.000000000
 11
156.649657700
 21
218.169113386
 31
0.000000000
  0
LINE
  5
BB3
330
A02
100
AcDbEntity
  8
View
100
AcDbLine
 10
156.649657700
 20
218.169113386
 30
0.000000000
 11
156.649657700
 21
232.168313386
 31
0.000000000
  0
LINE
  5
BB4
330
A02
100
AcDbEntity
  8
View
100
AcDbLine
 10
185.224657700
 20
213.118313386
 30
0.000000000
 11
199.223957700
 21
213.118313386
 31
0.000000000
  0
LINE
  5
BB5
330
A02
100
AcDbEntity
  8
View
100
AcDbLine
 10
199.223957700
 20
213.118313386
 30
0.000000000
 11
199.223957700
 21
199.119113386
 31
0.000000000
  0
LINE
  5
BB6
330
A02
100
AcDbEntity
  8
View
100
AcDbLine
 10
199.223957700
 20
199.119113386
 30
0.000000000
 11
185.224657700
 21
199.119113386
 31
0.000000000
  0
LINE
  5
BB7
330
A02
100
AcDbEntity
  8
View
100
AcDbLine
 10
185.224657700
 20
199.119113386
 30
0.000000000
 11
185.224657700
 21
213.118313386
 31
0.000000000
  0
LINE
  5
BB8
330
A02
100
AcDbEntity
  8
View
100
AcDbLine
 10
347.149957700
 20
155.968413386
 30
0.000000000
 11
361.148957700
 21
155.968413386
 31
0.000000000
  0
LINE
  5
BB9
330
A02
100
AcDbEntity
  8
View
100
AcDbLine
 10
361.148957700
 20
155.968413386
 30
0.000000000
 11
361.148957700
 21
141.968943386
 31
0.000000000
  0
LINE
  5
BBA
330
A02
100
AcDbEntity
  8
View
100
AcDbLine
 10
361.148957700
 20
141.968943386
 30
0.000000000
 11
347.149957700
 21
141.968943386
 31
0.000000000
  0
LINE
  5
BBB
330
A02
100
AcDbEntity
  8
View
100
AcDbLine
 10
347.149957700
 20
141.968943386
 30
0.000000000
 11
347.149957700
 21
155.968413386
 31
0.000000000
  0
LINE
  5
BBC
330
A02
100
AcDbEntity
  8
View
100
AcDbLine
 10
328.099957700
 20
155.968413386
 30
0.000000000
 11
342.098957700
 21
155.968413386
 31
0.000000000
  0
LINE
  5
BBD
330
A02
100
AcDbEntity
  8
View
100
AcDbLine
 10
342.098957700
 20
155.968413386
 30
0.000000000
 11
342.098957700
 21
141.968943386
 31
0.000000000
  0
LINE
  5
BBE
330
A02
100
AcDbEntity
  8
View
100
AcDbLine
 10
342.098957700
 20
141.968943386
 30
0.000000000
 11
328.099957700
 21
141.968943386
 31
0.000000000
  0
LINE
  5
BBF
330
A02
100
AcDbEntity
  8
View
100
AcDbLine
 10
328.099957700
 20
141.968943386
 30
0.000000000
 11
328.099957700
 21
155.968413386
 31
0.000000000
  0
LINE
  5
BC0
330
A02
100
AcDbEntity
  8
View
100
AcDbLine
 10
385.249957700
 20
155.968413386
 30
0.000000000
 11
399.248957700
 21
155.968413386
 31
0.000000000
  0
LINE
  5
BC1
330
A02
100
AcDbEntity
  8
View
100
AcDbLine
 10
399.248957700
 20
155.968413386
 30
0.000000000
 11
399.248957700
 21
141.968943386
 31
0.000000000
  0
LINE
  5
BC2
330
A02
100
AcDbEntity
  8
View
100
AcDbLine
 10
399.248957700
 20
141.968943386
 30
0.000000000
 11
385.249957700
 21
141.968943386
 31
0.000000000
  0
LINE
  5
BC3
330
A02
100
AcDbEntity
  8
View
100
AcDbLine
 10
385.249957700
 20
141.968943386
 30
0.000000000
 11
385.249957700
 21
155.968413386
 31
0.000000000
  0
LINE
  5
BC4
330
A02
100
AcDbEntity
  8
View
100
AcDbLine
 10
404.299957700
 20
155.968413386
 30
0.000000000
 11
418.298957700
 21
155.968413386
 31
0.000000000
  0
LINE
  5
BC5
330
A02
100
AcDbEntity
  8
View
100
AcDbLine
 10
418.298957700
 20
155.968413386
 30
0.000000000
 11
418.298957700
 21
141.968943386
 31
0.000000000
  0
LINE
  5
BC6
330
A02
100
AcDbEntity
  8
View
100
AcDbLine
 10
418.298957700
 20
141.968943386
 30
0.000000000
 11
404.299957700
 21
141.968943386
 31
0.000000000
  0
LINE
  5
BC7
330
A02
100
AcDbEntity
  8
View
100
AcDbLine
 10
404.299957700
 20
141.968943386
 30
0.000000000
 11
404.299957700
 21
155.968413386
 31
0.000000000
  0
LINE
  5
BC8
330
A02
100
AcDbEntity
  8
View
100
AcDbLine
 10
309.049957700
 20
155.968413386
 30
0.000000000
 11
323.048957700
 21
155.968413386
 31
0.000000000
  0
LINE
  5
BC9
330
A02
100
AcDbEntity
  8
View
100
AcDbLine
 10
323.048957700
 20
155.968413386
 30
0.000000000
 11
323.048957700
 21
141.968943386
 31
0.000000000
  0
LINE
  5
BCA
330
A02
100
AcDbEntity
  8
View
100
AcDbLine
 10
323.048957700
 20
141.968943386
 30
0.000000000
 11
309.049957700
 21
141.968943386
 31
0.000000000
  0
LINE
  5
BCB
330
A02
100
AcDbEntity
  8
View
100
AcDbLine
 10
309.049957700
 20
141.968943386
 30
0.000000000
 11
309.049957700
 21
155.968413386
 31
0.000000000
  0
LINE
  5
BCC
330
A02
100
AcDbEntity
  8
View
100
AcDbLine
 10
366.199957700
 20
155.968413386
 30
0.000000000
 11
380.198957700
 21
155.968413386
 31
0.000000000
  0
LINE
  5
BCD
330
A02
100
AcDbEntity
  8
View
100
AcDbLine
 10
380.198957700
 20
155.968413386
 30
0.000000000
 11
380.198957700
 21
141.968943386
 31
0.000000000
  0
LINE
  5
BCE
330
A02
100
AcDbEntity
  8
View
100
AcDbLine
 10
380.198957700
 20
141.968943386
 30
0.000000000
 11
366.199957700
 21
141.968943386
 31
0.000000000
  0
LINE
  5
BCF
330
A02
100
AcDbEntity
  8
View
100
AcDbLine
 10
366.199957700
 20
141.968943386
 30
0.000000000
 11
366.199957700
 21
155.968413386
 31
0.000000000
  0
LINE
  5
BD0
330
A02
100
AcDbEntity
  8
View
100
AcDbLine
 10
423.349957700
 20
155.968413386
 30
0.000000000
 11
437.348957700
 21
155.968413386
 31
0.000000000
  0
LINE
  5
BD1
330
A02
100
AcDbEntity
  8
View
100
AcDbLine
 10
437.348957700
 20
155.968413386
 30
0.000000000
 11
437.348957700
 21
141.968943386
 31
0.000000000
  0
LINE
  5
BD2
330
A02
100
AcDbEntity
  8
View
100
AcDbLine
 10
437.348957700
 20
141.968943386
 30
0.000000000
 11
423.349957700
 21
141.968943386
 31
0.000000000
  0
LINE
  5
BD3
330
A02
100
AcDbEntity
  8
View
100
AcDbLine
 10
423.349957700
 20
141.968943386
 30
0.000000000
 11
423.349957700
 21
155.968413386
 31
0.000000000
  0
LINE
  5
BD4
330
A02
100
AcDbEntity
  8
View
100
AcDbLine
 10
442.399957700
 20
155.968413386
 30
0.000000000
 11
456.398957700
 21
155.968413386
 31
0.000000000
  0
LINE
  5
BD5
330
A02
100
AcDbEntity
  8
View
100
AcDbLine
 10
456.398957700
 20
155.968413386
 30
0.000000000
 11
456.398957700
 21
141.968943386
 31
0.000000000
  0
LINE
  5
BD6
330
A02
100
AcDbEntity
  8
View
100
AcDbLine
 10
456.398957700
 20
141.968943386
 30
0.000000000
 11
442.399957700
 21
141.968943386
 31
0.000000000
  0
LINE
  5
BD7
330
A02
100
AcDbEntity
  8
View
100
AcDbLine
 10
442.399957700
 20
141.968943386
 30
0.000000000
 11
442.399957700
 21
155.968413386
 31
0.000000000
  0
LINE
  5
BD8
330
A02
100
AcDbEntity
  8
View
100
AcDbLine
 10
385.249957700
 20
175.018313386
 30
0.000000000
 11
399.248957700
 21
175.018313386
 31
0.000000000
  0
LINE
  5
BD9
330
A02
100
AcDbEntity
  8
View
100
AcDbLine
 10
399.248957700
 20
175.018313386
 30
0.000000000
 11
399.248957700
 21
161.018913386
 31
0.000000000
  0
LINE
  5
BDA
330
A02
100
AcDbEntity
  8
View
100
AcDbLine
 10
399.248957700
 20
161.018913386
 30
0.000000000
 11
385.249957700
 21
161.018913386
 31
0.000000000
  0
LINE
  5
BDB
330
A02
100
AcDbEntity
  8
View
100
AcDbLine
 10
385.249957700
 20
161.018913386
 30
0.000000000
 11
385.249957700
 21
175.018313386
 31
0.000000000
  0
LINE
  5
BDC
330
A02
100
AcDbEntity
  8
View
100
AcDbLine
 10
404.299957700
 20
175.018313386
 30
0.000000000
 11
418.298957700
 21
175.018313386
 31
0.000000000
  0
LINE
  5
BDD
330
A02
100
AcDbEntity
  8
View
100
AcDbLine
 10
418.298957700
 20
175.018313386
 30
0.000000000
 11
418.298957700
 21
161.018913386
 31
0.000000000
  0
LINE
  5
BDE
330
A02
100
AcDbEntity
  8
View
100
AcDbLine
 10
418.298957700
 20
161.018913386
 30
0.000000000
 11
404.299957700
 21
161.018913386
 31
0.000000000
  0
LINE
  5
BDF
330
A02
100
AcDbEntity
  8
View
100
AcDbLine
 10
404.299957700
 20
161.018913386
 30
0.000000000
 11
404.299957700
 21
175.018313386
 31
0.000000000
  0
LINE
  5
BE0
330
A02
100
AcDbEntity
  8
View
100
AcDbLine
 10
423.349957700
 20
175.018313386
 30
0.000000000
 11
437.348957700
 21
175.018313386
 31
0.000000000
  0
LINE
  5
BE1
330
A02
100
AcDbEntity
  8
View
100
AcDbLine
 10
437.348957700
 20
175.018313386
 30
0.000000000
 11
437.348957700
 21
161.018913386
 31
0.000000000
  0
LINE
  5
BE2
330
A02
100
AcDbEntity
  8
View
100
AcDbLine
 10
437.348957700
 20
161.018913386
 30
0.000000000
 11
423.349957700
 21
161.018913386
 31
0.000000000
  0
LINE
  5
BE3
330
A02
100
AcDbEntity
  8
View
100
AcDbLine
 10
423.349957700
 20
161.018913386
 30
0.000000000
 11
423.349957700
 21
175.018313386
 31
0.000000000
  0
LINE
  5
BE4
330
A02
100
AcDbEntity
  8
View
100
AcDbLine
 10
442.399957700
 20
175.018313386
 30
0.000000000
 11
456.398957700
 21
175.018313386
 31
0.000000000
  0
LINE
  5
BE5
330
A02
100
AcDbEntity
  8
View
100
AcDbLine
 10
456.398957700
 20
175.018313386
 30
0.000000000
 11
456.398957700
 21
161.018913386
 31
0.000000000
  0
LINE
  5
BE6
330
A02
100
AcDbEntity
  8
View
100
AcDbLine
 10
456.398957700
 20
161.018913386
 30
0.000000000
 11
442.399957700
 21
161.018913386
 31
0.000000000
  0
LINE
  5
BE7
330
A02
100
AcDbEntity
  8
View
100
AcDbLine
 10
442.399957700
 20
161.018913386
 30
0.000000000
 11
442.399957700
 21
175.018313386
 31
0.000000000
  0
LINE
  5
BE8
330
A02
100
AcDbEntity
  8
View
100
AcDbLine
 10
359.055957700
 20
175.018313386
 30
0.000000000
 11
373.054957700
 21
175.018313386
 31
0.000000000
  0
LINE
  5
BE9
330
A02
100
AcDbEntity
  8
View
100
AcDbLine
 10
373.054957700
 20
175.018313386
 30
0.000000000
 11
373.054957700
 21
161.018913386
 31
0.000000000
  0
LINE
  5
BEA
330
A02
100
AcDbEntity
  8
View
100
AcDbLine
 10
373.054957700
 20
161.018913386
 30
0.000000000
 11
359.055957700
 21
161.018913386
 31
0.000000000
  0
LINE
  5
BEB
330
A02
100
AcDbEntity
  8
View
100
AcDbLine
 10
359.055957700
 20
161.018913386
 30
0.000000000
 11
359.055957700
 21
175.018313386
 31
0.000000000
  0
LINE
  5
BEC
330
A02
100
AcDbEntity
  8
View
100
AcDbLine
 10
118.549607700
 20
251.217913386
 30
0.000000000
 11
132.549157700
 21
251.217913386
 31
0.000000000
  0
LINE
  5
BED
330
A02
100
AcDbEntity
  8
View
100
AcDbLine
 10
132.549157700
 20
251.217913386
 30
0.000000000
 11
132.549157700
 21
237.219113386
 31
0.000000000
  0
LINE
  5
BEE
330
A02
100
AcDbEntity
  8
View
100
AcDbLine
 10
132.549157700
 20
237.219113386
 30
0.000000000
 11
118.549607700
 21
237.219113386
 31
0.000000000
  0
LINE
  5
BEF
330
A02
100
AcDbEntity
  8
View
100
AcDbLine
 10
118.549607700
 20
237.219113386
 30
0.000000000
 11
118.549607700
 21
251.217913386
 31
0.000000000
  0
LINE
  5
BF0
330
A02
100
AcDbEntity
  8
View
100
AcDbLine
 10
280.474957700
 20
213.118313386
 30
0.000000000
 11
294.473957700
 21
213.118313386
 31
0.000000000
  0
LINE
  5
BF1
330
A02
100
AcDbEntity
  8
View
100
AcDbLine
 10
294.473957700
 20
213.118313386
 30
0.000000000
 11
294.473957700
 21
199.119113386
 31
0.000000000
  0
LINE
  5
BF2
330
A02
100
AcDbEntity
  8
View
100
AcDbLine
 10
294.473957700
 20
199.119113386
 30
0.000000000
 11
280.474957700
 21
199.119113386
 31
0.000000000
  0
LINE
  5
BF3
330
A02
100
AcDbEntity
  8
View
100
AcDbLine
 10
280.474957700
 20
199.119113386
 30
0.000000000
 11
280.474957700
 21
213.118313386
 31
0.000000000
  0
LINE
  5
BF4
330
A02
100
AcDbEntity
  8
View
100
AcDbLine
 10
299.524957700
 20
213.118313386
 30
0.000000000
 11
313.523957700
 21
213.118313386
 31
0.000000000
  0
LINE
  5
BF5
330
A02
100
AcDbEntity
  8
View
100
AcDbLine
 10
313.523957700
 20
213.118313386
 30
0.000000000
 11
313.523957700
 21
199.119113386
 31
0.000000000
  0
LINE
  5
BF6
330
A02
100
AcDbEntity
  8
View
100
AcDbLine
 10
313.523957700
 20
199.119113386
 30
0.000000000
 11
299.524957700
 21
199.119113386
 31
0.000000000
  0
LINE
  5
BF7
330
A02
100
AcDbEntity
  8
View
100
AcDbLine
 10
299.524957700
 20
199.119113386
 30
0.000000000
 11
299.524957700
 21
213.118313386
 31
0.000000000
  0
LINE
  5
BF8
330
A02
100
AcDbEntity
  8
View
100
AcDbLine
 10
289.999957700
 20
232.168313386
 30
0.000000000
 11
303.998957700
 21
232.168313386
 31
0.000000000
  0
LINE
  5
BF9
330
A02
100
AcDbEntity
  8
View
100
AcDbLine
 10
303.998957700
 20
232.168313386
 30
0.000000000
 11
303.998957700
 21
218.169113386
 31
0.000000000
  0
LINE
  5
BFA
330
A02
100
AcDbEntity
  8
View
100
AcDbLine
 10
303.998957700
 20
218.169113386
 30
0.000000000
 11
289.999957700
 21
218.169113386
 31
0.000000000
  0
LINE
  5
BFB
330
A02
100
AcDbEntity
  8
View
100
AcDbLine
 10
289.999957700
 20
218.169113386
 30
0.000000000
 11
289.999957700
 21
232.168313386
 31
0.000000000
  0
LINE
  5
BFC
330
A02
100
AcDbEntity
  8
View
100
AcDbLine
 10
347.149957700
 20
232.168313386
 30
0.000000000
 11
361.148957700
 21
232.168313386
 31
0.000000000
  0
LINE
  5
BFD
330
A02
100
AcDbEntity
  8
View
100
AcDbLine
 10
361.148957700
 20
232.168313386
 30
0.000000000
 11
361.148957700
 21
218.169113386
 31
0.000000000
  0
LINE
  5
BFE
330
A02
100
AcDbEntity
  8
View
100
AcDbLine
 10
361.148957700
 20
218.169113386
 30
0.000000000
 11
347.149957700
 21
218.169113386
 31
0.000000000
  0
LINE
  5
BFF
330
A02
100
AcDbEntity
  8
View
100
AcDbLine
 10
347.149957700
 20
218.169113386
 30
0.000000000
 11
347.149957700
 21
232.168313386
 31
0.000000000
  0
LINE
  5
C00
330
A02
100
AcDbEntity
  8
View
100
AcDbLine
 10
223.324957700
 20
213.118313386
 30
0.000000000
 11
237.323957700
 21
213.118313386
 31
0.000000000
  0
LINE
  5
C01
330
A02
100
AcDbEntity
  8
View
100
AcDbLine
 10
237.323957700
 20
213.118313386
 30
0.000000000
 11
237.323957700
 21
199.119113386
 31
0.000000000
  0
LINE
  5
C02
330
A02
100
AcDbEntity
  8
View
100
AcDbLine
 10
237.323957700
 20
199.119113386
 30
0.000000000
 11
223.324957700
 21
199.119113386
 31
0.000000000
  0
LINE
  5
C03
330
A02
100
AcDbEntity
  8
View
100
AcDbLine
 10
223.324957700
 20
199.119113386
 30
0.000000000
 11
223.324957700
 21
213.118313386
 31
0.000000000
  0
LINE
  5
C04
330
A02
100
AcDbEntity
  8
View
100
AcDbLine
 10
404.299957700
 20
194.068313386
 30
0.000000000
 11
418.298957700
 21
194.068313386
 31
0.000000000
  0
LINE
  5
C05
330
A02
100
AcDbEntity
  8
View
100
AcDbLine
 10
418.298957700
 20
194.068313386
 30
0.000000000
 11
418.298957700
 21
180.069113386
 31
0.000000000
  0
LINE
  5
C06
330
A02
100
AcDbEntity
  8
View
100
AcDbLine
 10
418.298957700
 20
180.069113386
 30
0.000000000
 11
404.299957700
 21
180.069113386
 31
0.000000000
  0
LINE
  5
C07
330
A02
100
AcDbEntity
  8
View
100
AcDbLine
 10
404.299957700
 20
180.069113386
 30
0.000000000
 11
404.299957700
 21
194.068313386
 31
0.000000000
  0
LINE
  5
C08
330
A02
100
AcDbEntity
  8
View
100
AcDbLine
 10
328.099957700
 20
232.168313386
 30
0.000000000
 11
342.098957700
 21
232.168313386
 31
0.000000000
  0
LINE
  5
C09
330
A02
100
AcDbEntity
  8
View
100
AcDbLine
 10
342.098957700
 20
232.168313386
 30
0.000000000
 11
342.098957700
 21
218.169113386
 31
0.000000000
  0
LINE
  5
C0A
330
A02
100
AcDbEntity
  8
View
100
AcDbLine
 10
342.098957700
 20
218.169113386
 30
0.000000000
 11
328.099957700
 21
218.169113386
 31
0.000000000
  0
LINE
  5
C0B
330
A02
100
AcDbEntity
  8
View
100
AcDbLine
 10
328.099957700
 20
218.169113386
 30
0.000000000
 11
328.099957700
 21
232.168313386
 31
0.000000000
  0
LINE
  5
C0C
330
A02
100
AcDbEntity
  8
View
100
AcDbLine
 10
404.299957700
 20
232.168313386
 30
0.000000000
 11
418.298957700
 21
232.168313386
 31
0.000000000
  0
LINE
  5
C0D
330
A02
100
AcDbEntity
  8
View
100
AcDbLine
 10
418.298957700
 20
232.168313386
 30
0.000000000
 11
418.298957700
 21
218.169113386
 31
0.000000000
  0
LINE
  5
C0E
330
A02
100
AcDbEntity
  8
View
100
AcDbLine
 10
418.298957700
 20
218.169113386
 30
0.000000000
 11
404.299957700
 21
218.169113386
 31
0.000000000
  0
LINE
  5
C0F
330
A02
100
AcDbEntity
  8
View
100
AcDbLine
 10
404.299957700
 20
218.169113386
 30
0.000000000
 11
404.299957700
 21
232.168313386
 31
0.000000000
  0
LINE
  5
C10
330
A02
100
AcDbEntity
  8
View
100
AcDbLine
 10
461.449957700
 20
232.168313386
 30
0.000000000
 11
475.448957700
 21
232.168313386
 31
0.000000000
  0
LINE
  5
C11
330
A02
100
AcDbEntity
  8
View
100
AcDbLine
 10
475.448957700
 20
232.168313386
 30
0.000000000
 11
475.448957700
 21
218.169113386
 31
0.000000000
  0
LINE
  5
C12
330
A02
100
AcDbEntity
  8
View
100
AcDbLine
 10
475.448957700
 20
218.169113386
 30
0.000000000
 11
461.449957700
 21
218.169113386
 31
0.000000000
  0
LINE
  5
C13
330
A02
100
AcDbEntity
  8
View
100
AcDbLine
 10
461.449957700
 20
218.169113386
 30
0.000000000
 11
461.449957700
 21
232.168313386
 31
0.000000000
  0
LINE
  5
C14
330
A02
100
AcDbEntity
  8
View
100
AcDbLine
 10
337.624957700
 20
213.118313386
 30
0.000000000
 11
351.623957700
 21
213.118313386
 31
0.000000000
  0
LINE
  5
C15
330
A02
100
AcDbEntity
  8
View
100
AcDbLine
 10
351.623957700
 20
213.118313386
 30
0.000000000
 11
351.623957700
 21
199.119113386
 31
0.000000000
  0
LINE
  5
C16
330
A02
100
AcDbEntity
  8
View
100
AcDbLine
 10
351.623957700
 20
199.119113386
 30
0.000000000
 11
337.624957700
 21
199.119113386
 31
0.000000000
  0
LINE
  5
C17
330
A02
100
AcDbEntity
  8
View
100
AcDbLine
 10
337.624957700
 20
199.119113386
 30
0.000000000
 11
337.624957700
 21
213.118313386
 31
0.000000000
  0
LINE
  5
C18
330
A02
100
AcDbEntity
  8
View
100
AcDbLine
 10
404.299957700
 20
213.118313386
 30
0.000000000
 11
418.298957700
 21
213.118313386
 31
0.000000000
  0
LINE
  5
C19
330
A02
100
AcDbEntity
  8
View
100
AcDbLine
 10
418.298957700
 20
213.118313386
 30
0.000000000
 11
418.298957700
 21
199.119113386
 31
0.000000000
  0
LINE
  5
C1A
330
A02
100
AcDbEntity
  8
View
100
AcDbLine
 10
418.298957700
 20
199.119113386
 30
0.000000000
 11
404.299957700
 21
199.119113386
 31
0.000000000
  0
LINE
  5
C1B
330
A02
100
AcDbEntity
  8
View
100
AcDbLine
 10
404.299957700
 20
199.119113386
 30
0.000000000
 11
404.299957700
 21
213.118313386
 31
0.000000000
  0
LINE
  5
C1C
330
A02
100
AcDbEntity
  8
View
100
AcDbLine
 10
242.374957700
 20
213.118313386
 30
0.000000000
 11
256.373957700
 21
213.118313386
 31
0.000000000
  0
LINE
  5
C1D
330
A02
100
AcDbEntity
  8
View
100
AcDbLine
 10
256.373957700
 20
213.118313386
 30
0.000000000
 11
256.373957700
 21
199.119113386
 31
0.000000000
  0
LINE
  5
C1E
330
A02
100
AcDbEntity
  8
View
100
AcDbLine
 10
256.373957700
 20
199.119113386
 30
0.000000000
 11
242.374957700
 21
199.119113386
 31
0.000000000
  0
LINE
  5
C1F
330
A02
100
AcDbEntity
  8
View
100
AcDbLine
 10
242.374957700
 20
199.119113386
 30
0.000000000
 11
242.374957700
 21
213.118313386
 31
0.000000000
  0
LINE
  5
C20
330
A02
100
AcDbEntity
  8
View
100
AcDbLine
 10
261.424957700
 20
213.118313386
 30
0.000000000
 11
275.423957700
 21
213.118313386
 31
0.000000000
  0
LINE
  5
C21
330
A02
100
AcDbEntity
  8
View
100
AcDbLine
 10
275.423957700
 20
213.118313386
 30
0.000000000
 11
275.423957700
 21
199.119113386
 31
0.000000000
  0
LINE
  5
C22
330
A02
100
AcDbEntity
  8
View
100
AcDbLine
 10
275.423957700
 20
199.119113386
 30
0.000000000
 11
261.424957700
 21
199.119113386
 31
0.000000000
  0
LINE
  5
C23
330
A02
100
AcDbEntity
  8
View
100
AcDbLine
 10
261.424957700
 20
199.119113386
 30
0.000000000
 11
261.424957700
 21
213.118313386
 31
0.000000000
  0
LINE
  5
C24
330
A02
100
AcDbEntity
  8
View
100
AcDbLine
 10
251.899957700
 20
232.168313386
 30
0.000000000
 11
265.898957700
 21
232.168313386
 31
0.000000000
  0
LINE
  5
C25
330
A02
100
AcDbEntity
  8
View
100
AcDbLine
 10
265.898957700
 20
232.168313386
 30
0.000000000
 11
265.898957700
 21
218.169113386
 31
0.000000000
  0
LINE
  5
C26
330
A02
100
AcDbEntity
  8
View
100
AcDbLine
 10
265.898957700
 20
218.169113386
 30
0.000000000
 11
251.899957700
 21
218.169113386
 31
0.000000000
  0
LINE
  5
C27
330
A02
100
AcDbEntity
  8
View
100
AcDbLine
 10
251.899957700
 20
218.169113386
 30
0.000000000
 11
251.899957700
 21
232.168313386
 31
0.000000000
  0
LINE
  5
C28
330
A02
100
AcDbEntity
  8
View
100
AcDbLine
 10
270.949957700
 20
232.168313386
 30
0.000000000
 11
284.948957700
 21
232.168313386
 31
0.000000000
  0
LINE
  5
C29
330
A02
100
AcDbEntity
  8
View
100
AcDbLine
 10
284.948957700
 20
232.168313386
 30
0.000000000
 11
284.948957700
 21
218.169113386
 31
0.000000000
  0
LINE
  5
C2A
330
A02
100
AcDbEntity
  8
View
100
AcDbLine
 10
284.948957700
 20
218.169113386
 30
0.000000000
 11
270.949957700
 21
218.169113386
 31
0.000000000
  0
LINE
  5
C2B
330
A02
100
AcDbEntity
  8
View
100
AcDbLine
 10
270.949957700
 20
218.169113386
 30
0.000000000
 11
270.949957700
 21
232.168313386
 31
0.000000000
  0
LINE
  5
C2C
330
A02
100
AcDbEntity
  8
View
100
AcDbLine
 10
423.349957700
 20
194.068313386
 30
0.000000000
 11
437.348957700
 21
194.068313386
 31
0.000000000
  0
LINE
  5
C2D
330
A02
100
AcDbEntity
  8
View
100
AcDbLine
 10
437.348957700
 20
194.068313386
 30
0.000000000
 11
437.348957700
 21
180.069113386
 31
0.000000000
  0
LINE
  5
C2E
330
A02
100
AcDbEntity
  8
View
100
AcDbLine
 10
437.348957700
 20
180.069113386
 30
0.000000000
 11
423.349957700
 21
180.069113386
 31
0.000000000
  0
LINE
  5
C2F
330
A02
100
AcDbEntity
  8
View
100
AcDbLine
 10
423.349957700
 20
180.069113386
 30
0.000000000
 11
423.349957700
 21
194.068313386
 31
0.000000000
  0
LINE
  5
C30
330
A02
100
AcDbEntity
  8
View
100
AcDbLine
 10
442.399957700
 20
194.068313386
 30
0.000000000
 11
456.398957700
 21
194.068313386
 31
0.000000000
  0
LINE
  5
C31
330
A02
100
AcDbEntity
  8
View
100
AcDbLine
 10
456.398957700
 20
194.068313386
 30
0.000000000
 11
456.398957700
 21
180.069113386
 31
0.000000000
  0
LINE
  5
C32
330
A02
100
AcDbEntity
  8
View
100
AcDbLine
 10
456.398957700
 20
180.069113386
 30
0.000000000
 11
442.399957700
 21
180.069113386
 31
0.000000000
  0
LINE
  5
C33
330
A02
100
AcDbEntity
  8
View
100
AcDbLine
 10
442.399957700
 20
180.069113386
 30
0.000000000
 11
442.399957700
 21
194.068313386
 31
0.000000000
  0
LINE
  5
C34
330
A02
100
AcDbEntity
  8
View
100
AcDbLine
 10
423.349957700
 20
232.168313386
 30
0.000000000
 11
437.348957700
 21
232.168313386
 31
0.000000000
  0
LINE
  5
C35
330
A02
100
AcDbEntity
  8
View
100
AcDbLine
 10
437.348957700
 20
232.168313386
 30
0.000000000
 11
437.348957700
 21
218.169113386
 31
0.000000000
  0
LINE
  5
C36
330
A02
100
AcDbEntity
  8
View
100
AcDbLine
 10
437.348957700
 20
218.169113386
 30
0.000000000
 11
423.349957700
 21
218.169113386
 31
0.000000000
  0
LINE
  5
C37
330
A02
100
AcDbEntity
  8
View
100
AcDbLine
 10
423.349957700
 20
218.169113386
 30
0.000000000
 11
423.349957700
 21
232.168313386
 31
0.000000000
  0
LINE
  5
C38
330
A02
100
AcDbEntity
  8
View
100
AcDbLine
 10
442.399957700
 20
232.168313386
 30
0.000000000
 11
456.398957700
 21
232.168313386
 31
0.000000000
  0
LINE
  5
C39
330
A02
100
AcDbEntity
  8
View
100
AcDbLine
 10
456.398957700
 20
232.168313386
 30
0.000000000
 11
456.398957700
 21
218.169113386
 31
0.000000000
  0
LINE
  5
C3A
330
A02
100
AcDbEntity
  8
View
100
AcDbLine
 10
456.398957700
 20
218.169113386
 30
0.000000000
 11
442.399957700
 21
218.169113386
 31
0.000000000
  0
LINE
  5
C3B
330
A02
100
AcDbEntity
  8
View
100
AcDbLine
 10
442.399957700
 20
218.169113386
 30
0.000000000
 11
442.399957700
 21
232.168313386
 31
0.000000000
  0
LINE
  5
C3C
330
A02
100
AcDbEntity
  8
View
100
AcDbLine
 10
318.574957700
 20
213.118313386
 30
0.000000000
 11
332.573957700
 21
213.118313386
 31
0.000000000
  0
LINE
  5
C3D
330
A02
100
AcDbEntity
  8
View
100
AcDbLine
 10
332.573957700
 20
213.118313386
 30
0.000000000
 11
332.573957700
 21
199.119113386
 31
0.000000000
  0
LINE
  5
C3E
330
A02
100
AcDbEntity
  8
View
100
AcDbLine
 10
332.573957700
 20
199.119113386
 30
0.000000000
 11
318.574957700
 21
199.119113386
 31
0.000000000
  0
LINE
  5
C3F
330
A02
100
AcDbEntity
  8
View
100
AcDbLine
 10
318.574957700
 20
199.119113386
 30
0.000000000
 11
318.574957700
 21
213.118313386
 31
0.000000000
  0
LINE
  5
C40
330
A02
100
AcDbEntity
  8
View
100
AcDbLine
 10
309.049957700
 20
232.168313386
 30
0.000000000
 11
323.048957700
 21
232.168313386
 31
0.000000000
  0
LINE
  5
C41
330
A02
100
AcDbEntity
  8
View
100
AcDbLine
 10
323.048957700
 20
232.168313386
 30
0.000000000
 11
323.048957700
 21
218.169113386
 31
0.000000000
  0
LINE
  5
C42
330
A02
100
AcDbEntity
  8
View
100
AcDbLine
 10
323.048957700
 20
218.169113386
 30
0.000000000
 11
309.049957700
 21
218.169113386
 31
0.000000000
  0
LINE
  5
C43
330
A02
100
AcDbEntity
  8
View
100
AcDbLine
 10
309.049957700
 20
218.169113386
 30
0.000000000
 11
309.049957700
 21
232.168313386
 31
0.000000000
  0
LINE
  5
C44
330
A02
100
AcDbEntity
  8
View
100
AcDbLine
 10
423.349957700
 20
213.118313386
 30
0.000000000
 11
437.348957700
 21
213.118313386
 31
0.000000000
  0
LINE
  5
C45
330
A02
100
AcDbEntity
  8
View
100
AcDbLine
 10
437.348957700
 20
213.118313386
 30
0.000000000
 11
437.348957700
 21
199.119113386
 31
0.000000000
  0
LINE
  5
C46
330
A02
100
AcDbEntity
  8
View
100
AcDbLine
 10
437.348957700
 20
199.119113386
 30
0.000000000
 11
423.349957700
 21
199.119113386
 31
0.000000000
  0
LINE
  5
C47
330
A02
100
AcDbEntity
  8
View
100
AcDbLine
 10
423.349957700
 20
199.119113386
 30
0.000000000
 11
423.349957700
 21
213.118313386
 31
0.000000000
  0
LINE
  5
C48
330
A02
100
AcDbEntity
  8
View
100
AcDbLine
 10
442.399957700
 20
213.118313386
 30
0.000000000
 11
456.398957700
 21
213.118313386
 31
0.000000000
  0
LINE
  5
C49
330
A02
100
AcDbEntity
  8
View
100
AcDbLine
 10
456.398957700
 20
213.118313386
 30
0.000000000
 11
456.398957700
 21
199.119113386
 31
0.000000000
  0
LINE
  5
C4A
330
A02
100
AcDbEntity
  8
View
100
AcDbLine
 10
456.398957700
 20
199.119113386
 30
0.000000000
 11
442.399957700
 21
199.119113386
 31
0.000000000
  0
LINE
  5
C4B
330
A02
100
AcDbEntity
  8
View
100
AcDbLine
 10
442.399957700
 20
199.119113386
 30
0.000000000
 11
442.399957700
 21
213.118313386
 31
0.000000000
  0
LINE
  5
C4C
330
A02
100
AcDbEntity
  8
View
100
AcDbLine
 10
356.674957700
 20
213.118313386
 30
0.000000000
 11
370.673957700
 21
213.118313386
 31
0.000000000
  0
LINE
  5
C4D
330
A02
100
AcDbEntity
  8
View
100
AcDbLine
 10
370.673957700
 20
213.118313386
 30
0.000000000
 11
370.673957700
 21
199.119113386
 31
0.000000000
  0
LINE
  5
C4E
330
A02
100
AcDbEntity
  8
View
100
AcDbLine
 10
370.673957700
 20
199.119113386
 30
0.000000000
 11
356.674957700
 21
199.119113386
 31
0.000000000
  0
LINE
  5
C4F
330
A02
100
AcDbEntity
  8
View
100
AcDbLine
 10
356.674957700
 20
199.119113386
 30
0.000000000
 11
356.674957700
 21
213.118313386
 31
0.000000000
  0
LINE
  5
C50
330
A02
100
AcDbEntity
  8
View
100
AcDbLine
 10
137.599657700
 20
251.217913386
 30
0.000000000
 11
151.598957700
 21
251.217913386
 31
0.000000000
  0
LINE
  5
C51
330
A02
100
AcDbEntity
  8
View
100
AcDbLine
 10
151.598957700
 20
251.217913386
 30
0.000000000
 11
151.598957700
 21
237.219113386
 31
0.000000000
  0
LINE
  5
C52
330
A02
100
AcDbEntity
  8
View
100
AcDbLine
 10
151.598957700
 20
237.219113386
 30
0.000000000
 11
137.599657700
 21
237.219113386
 31
0.000000000
  0
LINE
  5
C53
330
A02
100
AcDbEntity
  8
View
100
AcDbLine
 10
137.599657700
 20
237.219113386
 30
0.000000000
 11
137.599657700
 21
251.217913386
 31
0.000000000
  0
LINE
  5
C54
330
A02
100
AcDbEntity
  8
View
100
AcDbLine
 10
175.699657700
 20
251.217913386
 30
0.000000000
 11
189.698957700
 21
251.217913386
 31
0.000000000
  0
LINE
  5
C55
330
A02
100
AcDbEntity
  8
View
100
AcDbLine
 10
189.698957700
 20
251.217913386
 30
0.000000000
 11
189.698957700
 21
237.219113386
 31
0.000000000
  0
LINE
  5
C56
330
A02
100
AcDbEntity
  8
View
100
AcDbLine
 10
189.698957700
 20
237.219113386
 30
0.000000000
 11
175.699657700
 21
237.219113386
 31
0.000000000
  0
LINE
  5
C57
330
A02
100
AcDbEntity
  8
View
100
AcDbLine
 10
175.699657700
 20
237.219113386
 30
0.000000000
 11
175.699657700
 21
251.217913386
 31
0.000000000
  0
LINE
  5
C58
330
A02
100
AcDbEntity
  8
View
100
AcDbLine
 10
194.749657700
 20
251.217913386
 30
0.000000000
 11
208.748957700
 21
251.217913386
 31
0.000000000
  0
LINE
  5
C59
330
A02
100
AcDbEntity
  8
View
100
AcDbLine
 10
208.748957700
 20
251.217913386
 30
0.000000000
 11
208.748957700
 21
237.219113386
 31
0.000000000
  0
LINE
  5
C5A
330
A02
100
AcDbEntity
  8
View
100
AcDbLine
 10
208.748957700
 20
237.219113386
 30
0.000000000
 11
194.749657700
 21
237.219113386
 31
0.000000000
  0
LINE
  5
C5B
330
A02
100
AcDbEntity
  8
View
100
AcDbLine
 10
194.749657700
 20
237.219113386
 30
0.000000000
 11
194.749657700
 21
251.217913386
 31
0.000000000
  0
LINE
  5
C5C
330
A02
100
AcDbEntity
  8
View
100
AcDbLine
 10
156.649657700
 20
251.217913386
 30
0.000000000
 11
170.648957700
 21
251.217913386
 31
0.000000000
  0
LINE
  5
C5D
330
A02
100
AcDbEntity
  8
View
100
AcDbLine
 10
170.648957700
 20
251.217913386
 30
0.000000000
 11
170.648957700
 21
237.219113386
 31
0.000000000
  0
LINE
  5
C5E
330
A02
100
AcDbEntity
  8
View
100
AcDbLine
 10
170.648957700
 20
237.219113386
 30
0.000000000
 11
156.649657700
 21
237.219113386
 31
0.000000000
  0
LINE
  5
C5F
330
A02
100
AcDbEntity
  8
View
100
AcDbLine
 10
156.649657700
 20
237.219113386
 30
0.000000000
 11
156.649657700
 21
251.217913386
 31
0.000000000
  0
LINE
  5
C60
330
A02
100
AcDbEntity
  8
View
100
AcDbLine
 10
289.999957700
 20
251.217913386
 30
0.000000000
 11
303.998957700
 21
251.217913386
 31
0.000000000
  0
LINE
  5
C61
330
A02
100
AcDbEntity
  8
View
100
AcDbLine
 10
303.998957700
 20
251.217913386
 30
0.000000000
 11
303.998957700
 21
237.219113386
 31
0.000000000
  0
LINE
  5
C62
330
A02
100
AcDbEntity
  8
View
100
AcDbLine
 10
303.998957700
 20
237.219113386
 30
0.000000000
 11
289.999957700
 21
237.219113386
 31
0.000000000
  0
LINE
  5
C63
330
A02
100
AcDbEntity
  8
View
100
AcDbLine
 10
289.999957700
 20
237.219113386
 30
0.000000000
 11
289.999957700
 21
251.217913386
 31
0.000000000
  0
LINE
  5
C64
330
A02
100
AcDbEntity
  8
View
100
AcDbLine
 10
347.149957700
 20
251.217913386
 30
0.000000000
 11
361.148957700
 21
251.217913386
 31
0.000000000
  0
LINE
  5
C65
330
A02
100
AcDbEntity
  8
View
100
AcDbLine
 10
361.148957700
 20
251.217913386
 30
0.000000000
 11
361.148957700
 21
237.219113386
 31
0.000000000
  0
LINE
  5
C66
330
A02
100
AcDbEntity
  8
View
100
AcDbLine
 10
361.148957700
 20
237.219113386
 30
0.000000000
 11
347.149957700
 21
237.219113386
 31
0.000000000
  0
LINE
  5
C67
330
A02
100
AcDbEntity
  8
View
100
AcDbLine
 10
347.149957700
 20
237.219113386
 30
0.000000000
 11
347.149957700
 21
251.217913386
 31
0.000000000
  0
LINE
  5
C68
330
A02
100
AcDbEntity
  8
View
100
AcDbLine
 10
328.099957700
 20
251.217913386
 30
0.000000000
 11
342.098957700
 21
251.217913386
 31
0.000000000
  0
LINE
  5
C69
330
A02
100
AcDbEntity
  8
View
100
AcDbLine
 10
342.098957700
 20
251.217913386
 30
0.000000000
 11
342.098957700
 21
237.219113386
 31
0.000000000
  0
LINE
  5
C6A
330
A02
100
AcDbEntity
  8
View
100
AcDbLine
 10
342.098957700
 20
237.219113386
 30
0.000000000
 11
328.099957700
 21
237.219113386
 31
0.000000000
  0
LINE
  5
C6B
330
A02
100
AcDbEntity
  8
View
100
AcDbLine
 10
328.099957700
 20
237.219113386
 30
0.000000000
 11
328.099957700
 21
251.217913386
 31
0.000000000
  0
LINE
  5
C6C
330
A02
100
AcDbEntity
  8
View
100
AcDbLine
 10
385.249957700
 20
251.217913386
 30
0.000000000
 11
399.248957700
 21
251.217913386
 31
0.000000000
  0
LINE
  5
C6D
330
A02
100
AcDbEntity
  8
View
100
AcDbLine
 10
399.248957700
 20
251.217913386
 30
0.000000000
 11
399.248957700
 21
237.219113386
 31
0.000000000
  0
LINE
  5
C6E
330
A02
100
AcDbEntity
  8
View
100
AcDbLine
 10
399.248957700
 20
237.219113386
 30
0.000000000
 11
385.249957700
 21
237.219113386
 31
0.000000000
  0
LINE
  5
C6F
330
A02
100
AcDbEntity
  8
View
100
AcDbLine
 10
385.249957700
 20
237.219113386
 30
0.000000000
 11
385.249957700
 21
251.217913386
 31
0.000000000
  0
LINE
  5
C70
330
A02
100
AcDbEntity
  8
View
100
AcDbLine
 10
404.299957700
 20
251.217913386
 30
0.000000000
 11
418.298957700
 21
251.217913386
 31
0.000000000
  0
LINE
  5
C71
330
A02
100
AcDbEntity
  8
View
100
AcDbLine
 10
418.298957700
 20
251.217913386
 30
0.000000000
 11
418.298957700
 21
237.219113386
 31
0.000000000
  0
LINE
  5
C72
330
A02
100
AcDbEntity
  8
View
100
AcDbLine
 10
418.298957700
 20
237.219113386
 30
0.000000000
 11
404.299957700
 21
237.219113386
 31
0.000000000
  0
LINE
  5
C73
330
A02
100
AcDbEntity
  8
View
100
AcDbLine
 10
404.299957700
 20
237.219113386
 30
0.000000000
 11
404.299957700
 21
251.217913386
 31
0.000000000
  0
LINE
  5
C74
330
A02
100
AcDbEntity
  8
View
100
AcDbLine
 10
461.449957700
 20
251.217913386
 30
0.000000000
 11
475.448957700
 21
251.217913386
 31
0.000000000
  0
LINE
  5
C75
330
A02
100
AcDbEntity
  8
View
100
AcDbLine
 10
475.448957700
 20
251.217913386
 30
0.000000000
 11
475.448957700
 21
237.219113386
 31
0.000000000
  0
LINE
  5
C76
330
A02
100
AcDbEntity
  8
View
100
AcDbLine
 10
475.448957700
 20
237.219113386
 30
0.000000000
 11
461.449957700
 21
237.219113386
 31
0.000000000
  0
LINE
  5
C77
330
A02
100
AcDbEntity
  8
View
100
AcDbLine
 10
461.449957700
 20
237.219113386
 30
0.000000000
 11
461.449957700
 21
251.217913386
 31
0.000000000
  0
LINE
  5
C78
330
A02
100
AcDbEntity
  8
View
100
AcDbLine
 10
251.899957700
 20
251.217913386
 30
0.000000000
 11
265.898957700
 21
251.217913386
 31
0.000000000
  0
LINE
  5
C79
330
A02
100
AcDbEntity
  8
View
100
AcDbLine
 10
265.898957700
 20
251.217913386
 30
0.000000000
 11
265.898957700
 21
237.219113386
 31
0.000000000
  0
LINE
  5
C7A
330
A02
100
AcDbEntity
  8
View
100
AcDbLine
 10
265.898957700
 20
237.219113386
 30
0.000000000
 11
251.899957700
 21
237.219113386
 31
0.000000000
  0
LINE
  5
C7B
330
A02
100
AcDbEntity
  8
View
100
AcDbLine
 10
251.899957700
 20
237.219113386
 30
0.000000000
 11
251.899957700
 21
251.217913386
 31
0.000000000
  0
LINE
  5
C7C
330
A02
100
AcDbEntity
  8
View
100
AcDbLine
 10
270.949957700
 20
251.217913386
 30
0.000000000
 11
284.948957700
 21
251.217913386
 31
0.000000000
  0
LINE
  5
C7D
330
A02
100
AcDbEntity
  8
View
100
AcDbLine
 10
284.948957700
 20
251.217913386
 30
0.000000000
 11
284.948957700
 21
237.219113386
 31
0.000000000
  0
LINE
  5
C7E
330
A02
100
AcDbEntity
  8
View
100
AcDbLine
 10
284.948957700
 20
237.219113386
 30
0.000000000
 11
270.949957700
 21
237.219113386
 31
0.000000000
  0
LINE
  5
C7F
330
A02
100
AcDbEntity
  8
View
100
AcDbLine
 10
270.949957700
 20
237.219113386
 30
0.000000000
 11
270.949957700
 21
251.217913386
 31
0.000000000
  0
LINE
  5
C80
330
A02
100
AcDbEntity
  8
View
100
AcDbLine
 10
423.349957700
 20
251.217913386
 30
0.000000000
 11
437.348957700
 21
251.217913386
 31
0.000000000
  0
LINE
  5
C81
330
A02
100
AcDbEntity
  8
View
100
AcDbLine
 10
437.348957700
 20
251.217913386
 30
0.000000000
 11
437.348957700
 21
237.219113386
 31
0.000000000
  0
LINE
  5
C82
330
A02
100
AcDbEntity
  8
View
100
AcDbLine
 10
437.348957700
 20
237.219113386
 30
0.000000000
 11
423.349957700
 21
237.219113386
 31
0.000000000
  0
LINE
  5
C83
330
A02
100
AcDbEntity
  8
View
100
AcDbLine
 10
423.349957700
 20
237.219113386
 30
0.000000000
 11
423.349957700
 21
251.217913386
 31
0.000000000
  0
LINE
  5
C84
330
A02
100
AcDbEntity
  8
View
100
AcDbLine
 10
442.399957700
 20
251.217913386
 30
0.000000000
 11
456.398957700
 21
251.217913386
 31
0.000000000
  0
LINE
  5
C85
330
A02
100
AcDbEntity
  8
View
100
AcDbLine
 10
456.398957700
 20
251.217913386
 30
0.000000000
 11
456.398957700
 21
237.219113386
 31
0.000000000
  0
LINE
  5
C86
330
A02
100
AcDbEntity
  8
View
100
AcDbLine
 10
456.398957700
 20
237.219113386
 30
0.000000000
 11
442.399957700
 21
237.219113386
 31
0.000000000
  0
LINE
  5
C87
330
A02
100
AcDbEntity
  8
View
100
AcDbLine
 10
442.399957700
 20
237.219113386
 30
0.000000000
 11
442.399957700
 21
251.217913386
 31
0.000000000
  0
LINE
  5
C88
330
A02
100
AcDbEntity
  8
View
100
AcDbLine
 10
309.049957700
 20
251.217913386
 30
0.000000000
 11
323.048957700
 21
251.217913386
 31
0.000000000
  0
LINE
  5
C89
330
A02
100
AcDbEntity
  8
View
100
AcDbLine
 10
323.048957700
 20
251.217913386
 30
0.000000000
 11
323.048957700
 21
237.219113386
 31
0.000000000
  0
LINE
  5
C8A
330
A02
100
AcDbEntity
  8
View
100
AcDbLine
 10
323.048957700
 20
237.219113386
 30
0.000000000
 11
309.049957700
 21
237.219113386
 31
0.000000000
  0
LINE
  5
C8B
330
A02
100
AcDbEntity
  8
View
100
AcDbLine
 10
309.049957700
 20
237.219113386
 30
0.000000000
 11
309.049957700
 21
251.217913386
 31
0.000000000
  0
LINE
  5
C8C
330
A02
100
AcDbEntity
  8
View
100
AcDbLine
 10
366.199957700
 20
251.217913386
 30
0.000000000
 11
380.198957700
 21
251.217913386
 31
0.000000000
  0
LINE
  5
C8D
330
A02
100
AcDbEntity
  8
View
100
AcDbLine
 10
380.198957700
 20
251.217913386
 30
0.000000000
 11
380.198957700
 21
237.219113386
 31
0.000000000
  0
LINE
  5
C8E
330
A02
100
AcDbEntity
  8
View
100
AcDbLine
 10
380.198957700
 20
237.219113386
 30
0.000000000
 11
366.199957700
 21
237.219113386
 31
0.000000000
  0
LINE
  5
C8F
330
A02
100
AcDbEntity
  8
View
100
AcDbLine
 10
366.199957700
 20
237.219113386
 30
0.000000000
 11
366.199957700
 21
251.217913386
 31
0.000000000
  0
LINE
  5
C90
330
A02
100
AcDbEntity
  8
View
100
AcDbLine
 10
490.031704314
 20
295.349336143
 30
0.000000000
 11
104.031704314
 21
295.349336143
 31
0.000000000
  0
LINE
  5
C91
330
A02
100
AcDbEntity
  8
View
100
AcDbLine
 10
104.031704314
 20
124.650663857
 30
0.000000000
 11
490.031704314
 21
124.650663857
 31
0.000000000
  0
LINE
  5
C92
330
A02
100
AcDbEntity
  8
View
100
AcDbLine
 10
101.682368171
 20
305.769293937
 30
0.000000000
 11
101.682368171
 21
296.998672286
 31
0.000000000
  0
LINE
  5
C93
330
A02
100
AcDbEntity
  8
View
100
AcDbLine
 10
492.381040457
 20
296.998672286
 30
0.000000000
 11
492.381040457
 21
305.769293937
 31
0.000000000
  0
LINE
  5
C94
330
A02
100
AcDbEntity
  8
View
100
AcDbLine
 10
101.682368171
 20
123.001327714
 30
0.000000000
 11
101.682368171
 21
114.230706063
 31
0.000000000
  0
LINE
  5
C95
330
A02
100
AcDbEntity
  8
View
100
AcDbLine
 10
492.381040457
 20
114.230706063
 30
0.000000000
 11
492.381040457
 21
123.001327714
 31
0.000000000
  0
LINE
  5
C96
330
A02
100
AcDbEntity
  8
View
100
AcDbLine
 10
561.799338251
 20
123.001327714
 30
0.000000000
 11
494.030376600
 21
123.001327714
 31
0.000000000
  0
LINE
  5
C97
330
A02
100
AcDbEntity
  8
View
100
AcDbLine
 10
494.030376600
 20
123.001327714
 30
0.000000000
 11
490.731704314
 21
123.001327714
 31
0.000000000
  0
LINE
  5
C98
330
A02
100
AcDbEntity
  8
View
100
AcDbLine
 10
490.731704314
 20
123.001327714
 30
0.000000000
 11
490.031704314
 21
123.001327714
 31
0.000000000
  0
LINE
  5
C99
330
A02
100
AcDbEntity
  8
View
100
AcDbLine
 10
490.031704314
 20
123.001327714
 30
0.000000000
 11
490.031704314
 21
126.300000000
 31
0.000000000
  0
LINE
  5
C9A
330
A02
100
AcDbEntity
  8
View
100
AcDbLine
 10
490.031704314
 20
126.300000000
 30
0.000000000
 11
490.031704314
 21
293.700000000
 31
0.000000000
  0
LINE
  5
C9B
330
A02
100
AcDbEntity
  8
View
100
AcDbLine
 10
490.031704314
 20
293.700000000
 30
0.000000000
 11
490.031704314
 21
296.998672286
 31
0.000000000
  0
LINE
  5
C9C
330
A02
100
AcDbEntity
  8
View
100
AcDbLine
 10
490.031704314
 20
296.998672286
 30
0.000000000
 11
490.731704314
 21
296.998672286
 31
0.000000000
  0
LINE
  5
C9D
330
A02
100
AcDbEntity
  8
View
100
AcDbLine
 10
490.731704314
 20
296.998672286
 30
0.000000000
 11
494.030376600
 21
296.998672286
 31
0.000000000
  0
LINE
  5
C9E
330
A02
100
AcDbEntity
  8
View
100
AcDbLine
 10
494.030376600
 20
296.998672286
 30
0.000000000
 11
561.799338251
 21
296.998672286
 31
0.000000000
  0
ARC
  5
C9F
330
A02
100
AcDbEntity
  8
View
100
AcDbCircle
 10
561.799338251
 20
299.998672286
 30
0.000000000
 40
3.000000000
100
AcDbArc
 50
-90.000000000
 51
0.000000000
  0
LINE
  5
CA0
330
A02
100
AcDbEntity
  8
View
100
AcDbLine
 10
564.799338251
 20
299.998672286
 30
0.000000000
 11
564.799338251
 21
302.769293937
 31
0.000000000
  0
ARC
  5
CA1
330
A02
100
AcDbEntity
  8
View
100
AcDbCircle
 10
561.799338251
 20
302.769293937
 30
0.000000000
 40
3.000000000
100
AcDbArc
 50
-0.000000000
 51
90.000000000
  0
LINE
  5
CA2
330
A02
100
AcDbEntity
  8
View
100
AcDbLine
 10
561.799338251
 20
305.769293937
 30
0.000000000
 11
494.030376600
 21
305.769293937
 31
0.000000000
  0
LINE
  5
CA3
330
A02
100
AcDbEntity
  8
View
100
AcDbLine
 10
494.030376600
 20
305.769293937
 30
0.000000000
 11
490.731704314
 21
305.769293937
 31
0.000000000
  0
LINE
  5
CA4
330
A02
100
AcDbEntity
  8
View
100
AcDbLine
 10
490.731704314
 20
305.769293937
 30
0.000000000
 11
103.331704314
 21
305.769293937
 31
0.000000000
  0
LINE
  5
CA5
330
A02
100
AcDbEntity
  8
View
100
AcDbLine
 10
103.331704314
 20
305.769293937
 30
0.000000000
 11
100.033032028
 21
305.769293937
 31
0.000000000
  0
LINE
  5
CA6
330
A02
100
AcDbEntity
  8
View
100
AcDbLine
 10
100.033032028
 20
305.769293937
 30
0.000000000
 11
32.200661749
 21
305.769293937
 31
0.000000000
  0
ARC
  5
CA7
330
A02
100
AcDbEntity
  8
View
100
AcDbCircle
 10
32.200661749
 20
302.769293937
 30
0.000000000
 40
3.000000000
100
AcDbArc
 50
90.000000000
 51
-180.000000000
  0
LINE
  5
CA8
330
A02
100
AcDbEntity
  8
View
100
AcDbLine
 10
29.200661749
 20
302.769293937
 30
0.000000000
 11
29.200661749
 21
299.998672286
 31
0.000000000
  0
ARC
  5
CA9
330
A02
100
AcDbEntity
  8
View
100
AcDbCircle
 10
32.200661749
 20
299.998672286
 30
0.000000000
 40
3.000000000
100
AcDbArc
 50
180.000000000
 51
-90.000000000
  0
LINE
  5
CAA
330
A02
100
AcDbEntity
  8
View
100
AcDbLine
 10
32.200661749
 20
296.998672286
 30
0.000000000
 11
100.033032028
 21
296.998672286
 31
0.000000000
  0
LINE
  5
CAB
330
A02
100
AcDbEntity
  8
View
100
AcDbLine
 10
100.033032028
 20
296.998672286
 30
0.000000000
 11
103.331704314
 21
296.998672286
 31
0.000000000
  0
LINE
  5
CAC
330
A02
100
AcDbEntity
  8
View
100
AcDbLine
 10
103.331704314
 20
296.998672286
 30
0.000000000
 11
104.031704314
 21
296.998672286
 31
0.000000000
  0
LINE
  5
CAD
330
A02
100
AcDbEntity
  8
View
100
AcDbLine
 10
104.031704314
 20
296.998672286
 30
0.000000000
 11
104.031704314
 21
293.700000000
 31
0.000000000
  0
LINE
  5
CAE
330
A02
100
AcDbEntity
  8
View
100
AcDbLine
 10
104.031704314
 20
293.700000000
 30
0.000000000
 11
104.031704314
 21
126.300000000
 31
0.000000000
  0
LINE
  5
CAF
330
A02
100
AcDbEntity
  8
View
100
AcDbLine
 10
104.031704314
 20
126.300000000
 30
0.000000000
 11
104.031704314
 21
123.001327714
 31
0.000000000
  0
LINE
  5
CB0
330
A02
100
AcDbEntity
  8
View
100
AcDbLine
 10
104.031704314
 20
123.001327714
 30
0.000000000
 11
103.331704314
 21
123.001327714
 31
0.000000000
  0
LINE
  5
CB1
330
A02
100
AcDbEntity
  8
View
100
AcDbLine
 10
103.331704314
 20
123.001327714
 30
0.000000000
 11
100.033032028
 21
123.001327714
 31
0.000000000
  0
LINE
  5
CB2
330
A02
100
AcDbEntity
  8
View
100
AcDbLine
 10
100.033032028
 20
123.001327714
 30
0.000000000
 11
32.200661749
 21
123.001327714
 31
0.000000000
  0
ARC
  5
CB3
330
A02
100
AcDbEntity
  8
View
100
AcDbCircle
 10
32.200661749
 20
120.001327714
 30
0.000000000
 40
3.000000000
100
AcDbArc
 50
90.000000000
 51
180.000000000
  0
LINE
  5
CB4
330
A02
100
AcDbEntity
  8
View
100
AcDbLine
 10
29.200661749
 20
120.001327714
 30
0.000000000
 11
29.200661749
 21
117.230706063
 31
0.000000000
  0
ARC
  5
CB5
330
A02
100
AcDbEntity
  8
View
100
AcDbCircle
 10
32.200661749
 20
117.230706063
 30
0.000000000
 40
3.000000000
100
AcDbArc
 50
180.000000000
 51
-90.000000000
  0
LINE
  5
CB6
330
A02
100
AcDbEntity
  8
View
100
AcDbLine
 10
32.200661749
 20
114.230706063
 30
0.000000000
 11
100.033032028
 21
114.230706063
 31
0.000000000
  0
LINE
  5
CB7
330
A02
100
AcDbEntity
  8
View
100
AcDbLine
 10
100.033032028
 20
114.230706063
 30
0.000000000
 11
103.331704314
 21
114.230706063
 31
0.000000000
  0
LINE
  5
CB8
330
A02
100
AcDbEntity
  8
View
100
AcDbLine
 10
103.331704314
 20
114.230706063
 30
0.000000000
 11
490.731704314
 21
114.230706063
 31
0.000000000
  0
LINE
  5
CB9
330
A02
100
AcDbEntity
  8
View
100
AcDbLine
 10
490.731704314
 20
114.230706063
 30
0.000000000
 11
494.030376600
 21
114.230706063
 31
0.000000000
  0
LINE
  5
CBA
330
A02
100
AcDbEntity
  8
View
100
AcDbLine
 10
494.030376600
 20
114.230706063
 30
0.000000000
 11
561.799338251
 21
114.230706063
 31
0.000000000
  0
ARC
  5
CBB
330
A02
100
AcDbEntity
  8
View
100
AcDbCircle
 10
561.799338251
 20
117.230706063
 30
0.000000000
 40
3.000000000
100
AcDbArc
 50
-90.000000000
 51
0.000000000
  0
LINE
  5
CBC
330
A02
100
AcDbEntity
  8
View
100
AcDbLine
 10
564.799338251
 20
117.230706063
 30
0.000000000
 11
564.799338251
 21
120.001327714
 31
0.000000000
  0
ARC
  5
CBD
330
A02
100
AcDbEntity
  8
View
100
AcDbCircle
 10
561.799338251
 20
120.001327714
 30
0.000000000
 40
3.000000000
100
AcDbArc
 50
-0.000000000
 51
90.000000000
  0
ENDSEC
  0
SECTION
  2
OBJECTS
  0
DICTIONARY
  5
F000
330
0
100
AcDbDictionary
  3
ACAD_GROUP
350
F001
  0
DICTIONARY
  5
F001
330
F000
100
AcDbDictionary
  0
ENDSEC
  0
EOF