ISO-10303-21;
HEADER;
FILE_DESCRIPTION(('Creo Elements/Direct Modeling STEP Export'),'2;1');
FILE_NAME('supporto 1.stp','2026-02-18T15:50:41',(''),(''),
'Creo Elements/Direct Modeling STEP processor for AP214 (Solid Model)',
'Creo Elements/Direct Modeling 20.8A  08-Nov-2025 (C) Parametric Technol
ogy GmbH','');
FILE_SCHEMA(('AUTOMOTIVE_DESIGN { 1 0 10303 214 1 1 1 1 }'));
ENDSEC;
DATA;
#10=CARTESIAN_POINT('',(70.9000000000001,19.6,-3.));
#20=DIRECTION('',(0.,0.,-1.));
#30=DIRECTION('',(1.,0.,0.));
#40=AXIS2_PLACEMENT_3D('',#10,#20,#30);
#50=PLANE('',#40);
#60=CARTESIAN_POINT('',(120.9,22.,-3.));
#70=DIRECTION('',(-1.,0.,0.));
#80=VECTOR('',#70,1.);
#90=LINE('',#60,#80);
#100=CARTESIAN_POINT('',(120.9,22.,-3.));
#110=VERTEX_POINT('',#100);
#120=CARTESIAN_POINT('',(20.9000000000001,22.,-3.));
#130=VERTEX_POINT('',#120);
#140=EDGE_CURVE('',#110,#130,#90,.T.);
#150=ORIENTED_EDGE('',*,*,#140,.T.);
#160=CARTESIAN_POINT('',(120.9,19.6,-3.));
#170=DIRECTION('',(0.,0.,1.));
#180=DIRECTION('',(-1.1842378929335E-14,-1.,0.));
#190=AXIS2_PLACEMENT_3D('',#160,#170,#180);
#200=CIRCLE('',#190,2.4);
#210=CARTESIAN_POINT('',(120.9,17.2,-3.));
#220=VERTEX_POINT('',#210);
#230=EDGE_CURVE('',#220,#110,#200,.T.);
#240=ORIENTED_EDGE('',*,*,#230,.T.);
#250=CARTESIAN_POINT('',(120.9,17.2,-3.));
#260=DIRECTION('',(-1.,0.,0.));
#270=VECTOR('',#260,1.);
#280=LINE('',#250,#270);
#290=CARTESIAN_POINT('',(20.9000000000001,17.2,-3.));
#300=VERTEX_POINT('',#290);
#310=EDGE_CURVE('',#220,#300,#280,.T.);
#320=ORIENTED_EDGE('',*,*,#310,.F.);
#330=CARTESIAN_POINT('',(20.9000000000001,19.6,-3.));
#340=DIRECTION('',(0.,0.,1.));
#350=DIRECTION('',(-1.48029736616688E-15,1.,0.));
#360=AXIS2_PLACEMENT_3D('',#330,#340,#350);
#370=CIRCLE('',#360,2.4);
#380=EDGE_CURVE('',#130,#300,#370,.T.);
#390=ORIENTED_EDGE('',*,*,#380,.T.);
#400=EDGE_LOOP('',(#390,#320,#240,#150));
#410=FACE_OUTER_BOUND('',#400,.T.);
#420=ADVANCED_FACE('',(#410),#50,.F.);
#430=CARTESIAN_POINT('',(20.9000000000001,19.6,-3.));
#440=DIRECTION('',(0.,0.,-1.));
#450=DIRECTION('',(1.,0.,0.));
#460=AXIS2_PLACEMENT_3D('',#430,#440,#450);
#470=CYLINDRICAL_SURFACE('',#460,2.4);
#480=CARTESIAN_POINT('',(20.9000000000001,17.2,-5.5));
#490=DIRECTION('',(0.,0.,1.));
#500=VECTOR('',#490,1.);
#510=LINE('',#480,#500);
#520=CARTESIAN_POINT('',(20.9000000000001,17.2,-5.5));
#530=VERTEX_POINT('',#520);
#540=EDGE_CURVE('',#530,#300,#510,.T.);
#550=ORIENTED_EDGE('',*,*,#540,.T.);
#560=CARTESIAN_POINT('',(20.9000000000001,19.6,-5.5));
#570=DIRECTION('',(0.,0.,-1.));
#580=DIRECTION('',(-1.,0.,0.));
#590=AXIS2_PLACEMENT_3D('',#560,#570,#580);
#600=CIRCLE('',#590,2.4);
#610=CARTESIAN_POINT('',(20.9000000000001,22.,-5.5));
#620=VERTEX_POINT('',#610);
#630=EDGE_CURVE('',#530,#620,#600,.T.);
#640=ORIENTED_EDGE('',*,*,#630,.F.);
#650=CARTESIAN_POINT('',(20.9000000000001,22.,-3.));
#660=DIRECTION('',(0.,0.,-1.));
#670=VECTOR('',#660,1.);
#680=LINE('',#650,#670);
#690=EDGE_CURVE('',#130,#620,#680,.T.);
#700=ORIENTED_EDGE('',*,*,#690,.T.);
#710=ORIENTED_EDGE('',*,*,#380,.F.);
#720=EDGE_LOOP('',(#710,#700,#640,#550));
#730=FACE_OUTER_BOUND('',#720,.T.);
#740=ADVANCED_FACE('',(#730),#470,.T.);
#750=CARTESIAN_POINT('',(20.9000000000001,17.2,-3.));
#760=DIRECTION('',(0.,-1.,0.));
#770=DIRECTION('',(1.,0.,0.));
#780=AXIS2_PLACEMENT_3D('',#750,#760,#770);
#790=PLANE('',#780);
#800=CARTESIAN_POINT('',(120.9,17.2,-3.));
#810=DIRECTION('',(0.,0.,-1.));
#820=VECTOR('',#810,1.);
#830=LINE('',#800,#820);
#840=CARTESIAN_POINT('',(120.9,17.2,-5.5));
#850=VERTEX_POINT('',#840);
#860=EDGE_CURVE('',#220,#850,#830,.T.);
#870=ORIENTED_EDGE('',*,*,#860,.F.);
#880=CARTESIAN_POINT('',(120.9,17.2,-5.5));
#890=DIRECTION('',(-1.,0.,0.));
#900=VECTOR('',#890,1.);
#910=LINE('',#880,#900);
#920=EDGE_CURVE('',#850,#530,#910,.T.);
#930=ORIENTED_EDGE('',*,*,#920,.F.);
#940=ORIENTED_EDGE('',*,*,#540,.F.);
#950=ORIENTED_EDGE('',*,*,#310,.T.);
#960=EDGE_LOOP('',(#950,#940,#930,#870));
#970=FACE_OUTER_BOUND('',#960,.T.);
#980=ADVANCED_FACE('',(#970),#790,.T.);
#990=CARTESIAN_POINT('',(120.9,19.6,-3.));
#1000=DIRECTION('',(0.,0.,1.));
#1010=DIRECTION('',(1.,0.,0.));
#1020=AXIS2_PLACEMENT_3D('',#990,#1000,#1010);
#1030=CYLINDRICAL_SURFACE('',#1020,2.4);
#1040=CARTESIAN_POINT('',(120.9,22.,-5.5));
#1050=DIRECTION('',(0.,0.,1.));
#1060=VECTOR('',#1050,1.);
#1070=LINE('',#1040,#1060);
#1080=CARTESIAN_POINT('',(120.9,22.,-5.5));
#1090=VERTEX_POINT('',#1080);
#1100=EDGE_CURVE('',#1090,#110,#1070,.T.);
#1110=ORIENTED_EDGE('',*,*,#1100,.T.);
#1120=CARTESIAN_POINT('',(120.9,19.6,-5.5));
#1130=DIRECTION('',(0.,0.,-1.));
#1140=DIRECTION('',(1.,0.,0.));
#1150=AXIS2_PLACEMENT_3D('',#1120,#1130,#1140);
#1160=CIRCLE('',#1150,2.40000000000001);
#1170=EDGE_CURVE('',#1090,#850,#1160,.T.);
#1180=ORIENTED_EDGE('',*,*,#1170,.F.);
#1190=ORIENTED_EDGE('',*,*,#860,.T.);
#1200=ORIENTED_EDGE('',*,*,#230,.F.);
#1210=EDGE_LOOP('',(#1200,#1190,#1180,#1110));
#1220=FACE_OUTER_BOUND('',#1210,.T.);
#1230=ADVANCED_FACE('',(#1220),#1030,.T.);
#1240=CARTESIAN_POINT('',(120.9,22.,-3.));
#1250=DIRECTION('',(0.,1.,0.));
#1260=DIRECTION('',(-1.,0.,0.));
#1270=AXIS2_PLACEMENT_3D('',#1240,#1250,#1260);
#1280=PLANE('',#1270);
#1290=ORIENTED_EDGE('',*,*,#690,.F.);
#1300=CARTESIAN_POINT('',(20.9000000000001,22.,-5.5));
#1310=DIRECTION('',(1.,0.,0.));
#1320=VECTOR('',#1310,1.);
#1330=LINE('',#1300,#1320);
#1340=EDGE_CURVE('',#620,#1090,#1330,.T.);
#1350=ORIENTED_EDGE('',*,*,#1340,.F.);
#1360=ORIENTED_EDGE('',*,*,#1100,.F.);
#1370=ORIENTED_EDGE('',*,*,#140,.F.);
#1380=EDGE_LOOP('',(#1370,#1360,#1350,#1290));
#1390=FACE_OUTER_BOUND('',#1380,.T.);
#1400=ADVANCED_FACE('',(#1390),#1280,.T.);
#1410=CARTESIAN_POINT('',(70.9000000000001,20.5,-5.5));
#1420=DIRECTION('',(1.,0.,0.));
#1430=DIRECTION('',(0.,1.,0.));
#1440=AXIS2_PLACEMENT_3D('',#1410,#1420,#1430);
#1450=CYLINDRICAL_SURFACE('',#1440,1.5);
#1460=CARTESIAN_POINT('',(120.9,20.5,-5.5));
#1470=DIRECTION('',(1.,-1.07187543957223E-15,5.07742204818474E-30));
#1480=DIRECTION('',(0.,-4.736951571734E-15,-1.));
#1490=AXIS2_PLACEMENT_3D('',#1460,#1470,#1480);
#1500=CIRCLE('',#1490,1.5);
#1510=CARTESIAN_POINT('',(120.9,20.5,-7.));
#1520=VERTEX_POINT('',#1510);
#1530=EDGE_CURVE('',#1520,#1090,#1500,.T.);
#1540=ORIENTED_EDGE('',*,*,#1530,.F.);
#1550=ORIENTED_EDGE('',*,*,#1340,.T.);
#1560=CARTESIAN_POINT('',(20.9000000000001,20.5,-5.5));
#1570=DIRECTION('',(-1.,0.,0.));
#1580=DIRECTION('',(0.,1.,0.));
#1590=AXIS2_PLACEMENT_3D('',#1560,#1570,#1580);
#1600=CIRCLE('',#1590,1.5);
#1610=CARTESIAN_POINT('',(20.9000000000001,20.5,-7.));
#1620=VERTEX_POINT('',#1610);
#1630=EDGE_CURVE('',#620,#1620,#1600,.T.);
#1640=ORIENTED_EDGE('',*,*,#1630,.F.);
#1650=CARTESIAN_POINT('',(120.9,20.5,-7.));
#1660=DIRECTION('',(-1.,0.,0.));
#1670=VECTOR('',#1660,1.);
#1680=LINE('',#1650,#1670);
#1690=EDGE_CURVE('',#1520,#1620,#1680,.T.);
#1700=ORIENTED_EDGE('',*,*,#1690,.T.);
#1710=EDGE_LOOP('',(#1700,#1640,#1550,#1540));
#1720=FACE_OUTER_BOUND('',#1710,.T.);
#1730=ADVANCED_FACE('',(#1720),#1450,.T.);
#1740=CARTESIAN_POINT('',(70.9000000000001,19.6,-7.));
#1750=DIRECTION('',(0.,0.,-1.));
#1760=DIRECTION('',(1.,0.,0.));
#1770=AXIS2_PLACEMENT_3D('',#1740,#1750,#1760);
#1780=PLANE('',#1770);
#1790=CARTESIAN_POINT('',(120.9,19.6,-7.));
#1800=DIRECTION('',(0.,0.,-1.));
#1810=DIRECTION('',(0.,1.,0.));
#1820=AXIS2_PLACEMENT_3D('',#1790,#1800,#1810);
#1830=CIRCLE('',#1820,0.899999999999998);
#1840=CARTESIAN_POINT('',(120.9,18.7,-7.));
#1850=VERTEX_POINT('',#1840);
#1860=EDGE_CURVE('',#1520,#1850,#1830,.T.);
#1870=ORIENTED_EDGE('',*,*,#1860,.T.);
#1880=ORIENTED_EDGE('',*,*,#1690,.F.);
#1890=CARTESIAN_POINT('',(20.9000000000001,19.6,-7.));
#1900=DIRECTION('',(0.,0.,-1.));
#1910=DIRECTION('',(2.76322175017817E-14,-1.,0.));
#1920=AXIS2_PLACEMENT_3D('',#1890,#1900,#1910);
#1930=CIRCLE('',#1920,0.899999999999999);
#1940=CARTESIAN_POINT('',(20.9000000000001,18.7,-7.));
#1950=VERTEX_POINT('',#1940);
#1960=EDGE_CURVE('',#1950,#1620,#1930,.T.);
#1970=ORIENTED_EDGE('',*,*,#1960,.T.);
#1980=CARTESIAN_POINT('',(20.9000000000001,18.7,-7.));
#1990=DIRECTION('',(1.,0.,0.));
#2000=VECTOR('',#1990,1.);
#2010=LINE('',#1980,#2000);
#2020=EDGE_CURVE('',#1950,#1850,#2010,.T.);
#2030=ORIENTED_EDGE('',*,*,#2020,.F.);
#2040=EDGE_LOOP('',(#2030,#1970,#1880,#1870));
#2050=FACE_OUTER_BOUND('',#2040,.T.);
#2060=ADVANCED_FACE('',(#2050),#1780,.T.);
#2070=CARTESIAN_POINT('',(70.9000000000001,18.7,-5.5));
#2080=DIRECTION('',(-1.,0.,0.));
#2090=DIRECTION('',(0.,-1.,0.));
#2100=AXIS2_PLACEMENT_3D('',#2070,#2080,#2090);
#2110=CYLINDRICAL_SURFACE('',#2100,1.5);
#2120=CARTESIAN_POINT('',(20.9000000000001,18.7,-5.5));
#2130=DIRECTION('',(-1.,-6.12323399573677E-17,1.45027314501002E-31));
#2140=DIRECTION('',(0.,-2.368475785867E-15,-1.));
#2150=AXIS2_PLACEMENT_3D('',#2120,#2130,#2140);
#2160=CIRCLE('',#2150,1.5);
#2170=EDGE_CURVE('',#1950,#530,#2160,.T.);
#2180=ORIENTED_EDGE('',*,*,#2170,.F.);
#2190=ORIENTED_EDGE('',*,*,#920,.T.);
#2200=CARTESIAN_POINT('',(120.9,18.7,-5.5));
#2210=DIRECTION('',(1.,0.,0.));
#2220=DIRECTION('',(0.,-1.,0.));
#2230=AXIS2_PLACEMENT_3D('',#2200,#2210,#2220);
#2240=CIRCLE('',#2230,1.5);
#2250=EDGE_CURVE('',#850,#1850,#2240,.T.);
#2260=ORIENTED_EDGE('',*,*,#2250,.F.);
#2270=ORIENTED_EDGE('',*,*,#2020,.T.);
#2280=EDGE_LOOP('',(#2270,#2260,#2190,#2180));
#2290=FACE_OUTER_BOUND('',#2280,.T.);
#2300=ADVANCED_FACE('',(#2290),#2110,.T.);
#2310=CARTESIAN_POINT('',(20.9000000000001,19.6,-5.5));
#2320=DIRECTION('',(0.,0.,-1.));
#2330=DIRECTION('',(1.,0.,0.));
#2340=AXIS2_PLACEMENT_3D('',#2310,#2320,#2330);
#2350=DEGENERATE_TOROIDAL_SURFACE('',#2340,0.899999999999999,1.5,.T.);
#2360=ORIENTED_EDGE('',*,*,#1630,.T.);
#2370=ORIENTED_EDGE('',*,*,#630,.T.);
#2380=ORIENTED_EDGE('',*,*,#2170,.T.);
#2390=ORIENTED_EDGE('',*,*,#1960,.F.);
#2400=EDGE_LOOP('',(#2390,#2380,#2370,#2360));
#2410=FACE_OUTER_BOUND('',#2400,.T.);
#2420=ADVANCED_FACE('',(#2410),#2350,.T.);
#2430=CARTESIAN_POINT('',(120.9,19.6,-5.5));
#2440=DIRECTION('',(0.,0.,1.));
#2450=DIRECTION('',(-1.,0.,0.));
#2460=AXIS2_PLACEMENT_3D('',#2430,#2440,#2450);
#2470=DEGENERATE_TOROIDAL_SURFACE('',#2460,0.900000000000006,1.5,.T.);
#2480=ORIENTED_EDGE('',*,*,#2250,.T.);
#2490=ORIENTED_EDGE('',*,*,#1170,.T.);
#2500=ORIENTED_EDGE('',*,*,#1530,.T.);
#2510=ORIENTED_EDGE('',*,*,#1860,.F.);
#2520=EDGE_LOOP('',(#2510,#2500,#2490,#2480));
#2530=FACE_OUTER_BOUND('',#2520,.T.);
#2540=ADVANCED_FACE('',(#2530),#2470,.T.);
#2550=CLOSED_SHELL('',(#420,#740,#980,#1230,#1400,#1730,#2060,#2300,
#2420,#2540));
#2560=MANIFOLD_SOLID_BREP('',#2550);
#2570=CARTESIAN_POINT('',(0.,0.,0.));
#2580=DIRECTION('',(0.,0.,1.));
#2590=DIRECTION('',(1.,0.,0.));
#2600=AXIS2_PLACEMENT_3D('',#2570,#2580,#2590);
#2610=APPLICATION_CONTEXT(' ');
#2620=APPLICATION_PROTOCOL_DEFINITION(' ','automotive_design',1998,#2610
);
#2630=PRODUCT_CONTEXT('',#2610,'mechanical');
#2640=PRODUCT_DEFINITION_CONTEXT('part definition',#2610,'design');
#2650=PRODUCT('FOOT.prt','FOOT.prt','',(#2630));
#2660=PRODUCT_RELATED_PRODUCT_CATEGORY('part',' ',(#2650));
#2670=PRODUCT_DEFINITION_FORMATION_WITH_SPECIFIED_SOURCE('','',#2650,
.BOUGHT.);
#2680=PRODUCT_DEFINITION('',' ',#2670,#2640);
#2690=PRODUCT_DEFINITION_SHAPE('','',#2680);
#2700=DIMENSIONAL_EXPONENTS(1.,0.,0.,0.,0.,0.,0.);
#2710=DIMENSIONAL_EXPONENTS(0.,0.,0.,0.,0.,0.,0.);
#2720=DIMENSIONAL_EXPONENTS(0.,0.,0.,0.,0.,0.,0.);
#2730=(LENGTH_UNIT() NAMED_UNIT(*) SI_UNIT(.MILLI.,.METRE.));
#2740=(NAMED_UNIT(*) PLANE_ANGLE_UNIT() SI_UNIT($,.RADIAN.));
#2750=(NAMED_UNIT(*) SI_UNIT($,.STERADIAN.) SOLID_ANGLE_UNIT());
#2760=(GEOMETRIC_REPRESENTATION_CONTEXT(3) 
GLOBAL_UNCERTAINTY_ASSIGNED_CONTEXT((#2770)) 
GLOBAL_UNIT_ASSIGNED_CONTEXT((#2730,#2740,#2750)) REPRESENTATION_CONTEXT
('',''));
#2770=UNCERTAINTY_MEASURE_WITH_UNIT(LENGTH_MEASURE(0.01),#2730,
'distance_accuracy_value','maximum gap value');
#2780=ADVANCED_BREP_SHAPE_REPRESENTATION('',(#2600,#2560),#2760);
#2790=SHAPE_DEFINITION_REPRESENTATION(#2690,#2780);
#2800=COLOUR_RGB('',0.,1.,1.);
#2810=FILL_AREA_STYLE_COLOUR('',#2800);
#2820=FILL_AREA_STYLE('',(#2810));
#2830=SURFACE_STYLE_FILL_AREA(#2820);
#2840=SURFACE_SIDE_STYLE('',(#2830));
#2850=SURFACE_STYLE_USAGE(.BOTH.,#2840);
#2860=PRESENTATION_STYLE_ASSIGNMENT((#2850));
#2870=STYLED_ITEM('',(#2860),#2560);
#2880=DRAUGHTING_MODEL('',(#2870),#2760);
#2890=CARTESIAN_POINT('',(0.,-16.5,0.));
#2900=DIRECTION('',(0.,0.,1.));
#2910=DIRECTION('',(1.,0.,0.));
#2920=AXIS2_PLACEMENT_3D('',#2890,#2900,#2910);
#2930=ITEM_DEFINED_TRANSFORMATION('FOOT.prt','',#2600,#2920);
#2940=APPLICATION_CONTEXT(' ');
#2950=APPLICATION_PROTOCOL_DEFINITION(' ','automotive_design',1998,#2940
);
#2960=PRODUCT_CONTEXT('',#2940,'mechanical');
#2970=PRODUCT_DEFINITION_CONTEXT('part definition',#2940,'design');
#2980=PRODUCT('FOOT.prt','FOOT.prt','',(#2960));
#2990=PRODUCT_RELATED_PRODUCT_CATEGORY('part',' ',(#2980));
#3000=PRODUCT_DEFINITION_FORMATION_WITH_SPECIFIED_SOURCE('','',#2980,
.BOUGHT.);
#3010=PRODUCT_DEFINITION('',' ',#3000,#2970);
#3020=PRODUCT_DEFINITION_SHAPE('','',#3010);
#3030=DIMENSIONAL_EXPONENTS(1.,0.,0.,0.,0.,0.,0.);
#3040=DIMENSIONAL_EXPONENTS(0.,0.,0.,0.,0.,0.,0.);
#3050=DIMENSIONAL_EXPONENTS(0.,0.,0.,0.,0.,0.,0.);
#3060=(LENGTH_UNIT() NAMED_UNIT(*) SI_UNIT(.MILLI.,.METRE.));
#3070=(NAMED_UNIT(*) PLANE_ANGLE_UNIT() SI_UNIT($,.RADIAN.));
#3080=(NAMED_UNIT(*) SI_UNIT($,.STERADIAN.) SOLID_ANGLE_UNIT());
#3090=(GEOMETRIC_REPRESENTATION_CONTEXT(3) 
GLOBAL_UNCERTAINTY_ASSIGNED_CONTEXT((#3100)) 
GLOBAL_UNIT_ASSIGNED_CONTEXT((#3060,#3070,#3080)) REPRESENTATION_CONTEXT
('',''));
#3100=UNCERTAINTY_MEASURE_WITH_UNIT(LENGTH_MEASURE(0.01),#3060,
'distance_accuracy_value','maximum gap value');
#3110=SHAPE_REPRESENTATION('',(#2600,#2920),#3090);
#3120=SHAPE_DEFINITION_REPRESENTATION(#3020,#3110);
#3130=(REPRESENTATION_RELATIONSHIP('','',#2780,#3110) 
REPRESENTATION_RELATIONSHIP_WITH_TRANSFORMATION(#2930) 
SHAPE_REPRESENTATION_RELATIONSHIP());
#3140=NEXT_ASSEMBLY_USAGE_OCCURRENCE('1','','FOOT.prt',#3010,#2680,'');
#3150=PRODUCT_DEFINITION_SHAPE('','',#3140);
#3160=CONTEXT_DEPENDENT_SHAPE_REPRESENTATION(#3130,#3150);
ENDSEC;
END-ISO-10303-21;
